<mxfile host="app.diagrams.net" modified="2024-05-13T02:28:23.204Z" agent="Mozilla/5.0 (X11; Linux x86_64) AppleWebKit/537.36 (KHTML, like Gecko) Chrome/124.0.0.0 Safari/537.36" etag="gGFu4r9HXpQfX4dlquG3" version="24.4.0" type="device">
  <diagram name="Page-1" id="W8BKanMhP7pLT_wPg3o4">
    <mxGraphModel dx="4547" dy="2530" grid="1" gridSize="10" guides="1" tooltips="1" connect="1" arrows="1" fold="1" page="1" pageScale="1" pageWidth="850" pageHeight="1100" math="0" shadow="0">
      <root>
        <mxCell id="0" />
        <mxCell id="1" parent="0" />
        <mxCell id="hrKLpT6Ohzp5UsvpnBvF-2" value="" style="rounded=0;whiteSpace=wrap;html=1;fillColor=#E6E6E6;strokeColor=#333333;strokeWidth=3;" parent="1" vertex="1">
          <mxGeometry x="540" y="960" width="1870" height="1460" as="geometry" />
        </mxCell>
        <mxCell id="o5fnol5vWYC97HsQhqdw-18" value="&lt;font style=&quot;font-size: 30px;&quot;&gt;Kubernetes Cluster&lt;/font&gt;" style="text;html=1;strokeColor=none;fillColor=none;align=left;verticalAlign=middle;whiteSpace=wrap;rounded=0;fontSize=30;fontStyle=1;fontColor=#333333;container=0;" parent="1" vertex="1">
          <mxGeometry x="605.2171212893215" y="970" width="360.5528090300251" height="29.96" as="geometry" />
        </mxCell>
        <mxCell id="o5fnol5vWYC97HsQhqdw-12" value="" style="rounded=0;whiteSpace=wrap;html=1;fillColor=#E6E6E6;strokeColor=#333333;strokeWidth=3;dashed=1;" parent="1" vertex="1">
          <mxGeometry x="630" y="1181" width="1750" height="1209" as="geometry" />
        </mxCell>
        <mxCell id="o5fnol5vWYC97HsQhqdw-122" value="" style="rounded=0;whiteSpace=wrap;html=1;fillColor=#CCE5FF;" parent="1" vertex="1">
          <mxGeometry x="1330" y="1520" width="1020" height="260" as="geometry" />
        </mxCell>
        <mxCell id="hrKLpT6Ohzp5UsvpnBvF-3" value="" style="shape=image;verticalLabelPosition=bottom;labelBackgroundColor=default;verticalAlign=top;aspect=fixed;imageAspect=0;image=https://hermes.dio.me/articles/cover/d15641bf-9cee-493e-a5a4-f41ca0ffe7f7.png;container=0;" parent="1" vertex="1">
          <mxGeometry x="480.0049596283699" y="898.49" width="123.51" height="123.51" as="geometry" />
        </mxCell>
        <mxCell id="o5fnol5vWYC97HsQhqdw-32" value="" style="group" parent="1" vertex="1" connectable="0">
          <mxGeometry x="983" y="1499.54" width="290" height="260" as="geometry" />
        </mxCell>
        <mxCell id="o5fnol5vWYC97HsQhqdw-33" value="&lt;font style=&quot;font-size: 36px;&quot;&gt;&lt;b&gt;Migrate&lt;br&gt;Job&lt;/b&gt;&lt;br&gt;&lt;/font&gt;" style="rounded=1;whiteSpace=wrap;html=1;fillColor=#bac8d3;strokeColor=#23445d;fontColor=#333333;" parent="o5fnol5vWYC97HsQhqdw-32" vertex="1">
          <mxGeometry x="60" y="60" width="200" height="190" as="geometry" />
        </mxCell>
        <mxCell id="o5fnol5vWYC97HsQhqdw-5" value="" style="shape=image;verticalLabelPosition=bottom;labelBackgroundColor=default;verticalAlign=top;aspect=fixed;imageAspect=0;image=https://github.com/kubernetes/community/raw/master/icons/png/resources/labeled/job-128.png;" parent="1" vertex="1">
          <mxGeometry x="980" y="1497.54" width="128" height="124" as="geometry" />
        </mxCell>
        <mxCell id="o5fnol5vWYC97HsQhqdw-15" value="&lt;font style=&quot;font-size: 30px;&quot;&gt;irango&amp;nbsp;Namespace&lt;/font&gt;" style="text;html=1;strokeColor=none;fillColor=none;align=left;verticalAlign=middle;whiteSpace=wrap;rounded=0;fontSize=30;fontStyle=1;fontColor=#333333;container=0;" parent="1" vertex="1">
          <mxGeometry x="697.9961951700345" y="1191" width="362.8930507639231" height="29.96" as="geometry" />
        </mxCell>
        <mxCell id="o5fnol5vWYC97HsQhqdw-16" value="" style="shape=image;verticalLabelPosition=bottom;labelBackgroundColor=default;verticalAlign=top;aspect=fixed;imageAspect=0;image=https://github.com/kubernetes/community/raw/master/icons/png/resources/labeled/ns-128.png;container=0;" parent="1" vertex="1">
          <mxGeometry x="570" y="1117.96" width="128" height="124" as="geometry" />
        </mxCell>
        <mxCell id="o5fnol5vWYC97HsQhqdw-70" value="" style="shape=image;verticalLabelPosition=bottom;labelBackgroundColor=default;verticalAlign=top;aspect=fixed;imageAspect=0;image=https://github.com/kubernetes/community/raw/master/icons/png/resources/labeled/pod-128.png;" parent="1" vertex="1">
          <mxGeometry x="1550.0047166091667" y="1587" width="128" height="124" as="geometry" />
        </mxCell>
        <mxCell id="o5fnol5vWYC97HsQhqdw-71" value="" style="shape=image;verticalLabelPosition=bottom;labelBackgroundColor=default;verticalAlign=top;aspect=fixed;imageAspect=0;image=https://github.com/kubernetes/community/raw/master/icons/png/resources/labeled/pod-128.png;" parent="1" vertex="1">
          <mxGeometry x="1790.0031444061115" y="1587" width="128" height="124" as="geometry" />
        </mxCell>
        <mxCell id="o5fnol5vWYC97HsQhqdw-46" value="" style="group" parent="1" vertex="1" connectable="0">
          <mxGeometry x="1550" y="1843" width="128" height="514" as="geometry" />
        </mxCell>
        <mxCell id="o5fnol5vWYC97HsQhqdw-6" value="" style="shape=image;verticalLabelPosition=bottom;labelBackgroundColor=default;verticalAlign=top;aspect=fixed;imageAspect=0;image=https://github.com/kubernetes/community/raw/master/icons/png/resources/labeled/deploy-128.png;" parent="o5fnol5vWYC97HsQhqdw-46" vertex="1">
          <mxGeometry y="224" width="128" height="124" as="geometry" />
        </mxCell>
        <mxCell id="o5fnol5vWYC97HsQhqdw-44" style="edgeStyle=orthogonalEdgeStyle;rounded=0;orthogonalLoop=1;jettySize=auto;html=1;exitX=0.5;exitY=0;exitDx=0;exitDy=0;entryX=0.5;entryY=1;entryDx=0;entryDy=0;strokeWidth=5;strokeColor=#333333;" parent="o5fnol5vWYC97HsQhqdw-46" source="o5fnol5vWYC97HsQhqdw-7" target="o5fnol5vWYC97HsQhqdw-6" edge="1">
          <mxGeometry relative="1" as="geometry" />
        </mxCell>
        <mxCell id="o5fnol5vWYC97HsQhqdw-7" value="" style="shape=image;verticalLabelPosition=bottom;labelBackgroundColor=default;verticalAlign=top;aspect=fixed;imageAspect=0;image=https://github.com/kubernetes/community/raw/master/icons/png/resources/labeled/hpa-128.png;" parent="o5fnol5vWYC97HsQhqdw-46" vertex="1">
          <mxGeometry y="390" width="128" height="124" as="geometry" />
        </mxCell>
        <mxCell id="o5fnol5vWYC97HsQhqdw-8" value="" style="shape=image;verticalLabelPosition=bottom;labelBackgroundColor=default;verticalAlign=top;aspect=fixed;imageAspect=0;image=https://github.com/kubernetes/community/raw/master/icons/png/resources/labeled/rs-128.png;" parent="o5fnol5vWYC97HsQhqdw-46" vertex="1">
          <mxGeometry y="60" width="128" height="124" as="geometry" />
        </mxCell>
        <mxCell id="o5fnol5vWYC97HsQhqdw-45" style="edgeStyle=orthogonalEdgeStyle;rounded=0;orthogonalLoop=1;jettySize=auto;html=1;exitX=0.5;exitY=0;exitDx=0;exitDy=0;entryX=0.5;entryY=1;entryDx=0;entryDy=0;strokeWidth=5;strokeColor=#333333;" parent="o5fnol5vWYC97HsQhqdw-46" source="o5fnol5vWYC97HsQhqdw-6" target="o5fnol5vWYC97HsQhqdw-8" edge="1">
          <mxGeometry relative="1" as="geometry">
            <mxPoint x="74" y="400" as="sourcePoint" />
            <mxPoint x="74" y="328" as="targetPoint" />
          </mxGeometry>
        </mxCell>
        <mxCell id="o5fnol5vWYC97HsQhqdw-77" style="edgeStyle=orthogonalEdgeStyle;rounded=0;orthogonalLoop=1;jettySize=auto;html=1;exitX=0.5;exitY=0;exitDx=0;exitDy=0;entryX=0.5;entryY=1;entryDx=0;entryDy=0;strokeWidth=5;strokeColor=#333333;" parent="1" source="o5fnol5vWYC97HsQhqdw-8" target="o5fnol5vWYC97HsQhqdw-70" edge="1">
          <mxGeometry relative="1" as="geometry" />
        </mxCell>
        <mxCell id="o5fnol5vWYC97HsQhqdw-78" style="edgeStyle=orthogonalEdgeStyle;rounded=0;orthogonalLoop=1;jettySize=auto;html=1;exitX=0.5;exitY=0;exitDx=0;exitDy=0;entryX=0.5;entryY=1;entryDx=0;entryDy=0;strokeWidth=5;strokeColor=#333333;" parent="1" source="o5fnol5vWYC97HsQhqdw-8" target="o5fnol5vWYC97HsQhqdw-71" edge="1">
          <mxGeometry relative="1" as="geometry">
            <Array as="points">
              <mxPoint x="1614" y="1820" />
              <mxPoint x="1854" y="1820" />
            </Array>
          </mxGeometry>
        </mxCell>
        <mxCell id="o5fnol5vWYC97HsQhqdw-72" value="&lt;font style=&quot;font-size: 60px;&quot;&gt;...&lt;/font&gt;" style="text;html=1;strokeColor=none;fillColor=none;align=center;verticalAlign=middle;whiteSpace=wrap;rounded=0;" parent="1" vertex="1">
          <mxGeometry x="1695" y="1602" width="70" height="70" as="geometry" />
        </mxCell>
        <mxCell id="o5fnol5vWYC97HsQhqdw-82" style="edgeStyle=orthogonalEdgeStyle;rounded=0;orthogonalLoop=1;jettySize=auto;html=1;exitX=0.5;exitY=0;exitDx=0;exitDy=0;entryX=0.5;entryY=1;entryDx=0;entryDy=0;strokeWidth=5;strokeColor=#333333;" parent="1" source="o5fnol5vWYC97HsQhqdw-8" target="o5fnol5vWYC97HsQhqdw-43" edge="1">
          <mxGeometry relative="1" as="geometry">
            <mxPoint x="1243.5900000000001" y="1750" as="targetPoint" />
            <Array as="points">
              <mxPoint x="1614" y="1820" />
              <mxPoint x="1428" y="1820" />
            </Array>
          </mxGeometry>
        </mxCell>
        <mxCell id="o5fnol5vWYC97HsQhqdw-37" value="" style="shape=image;verticalLabelPosition=bottom;labelBackgroundColor=default;verticalAlign=top;aspect=fixed;imageAspect=0;image=https://github.com/kubernetes/community/raw/master/icons/png/resources/labeled/user-128.png;" parent="1" vertex="1">
          <mxGeometry x="1389.5" y="470" width="128" height="124" as="geometry" />
        </mxCell>
        <mxCell id="o5fnol5vWYC97HsQhqdw-60" style="edgeStyle=orthogonalEdgeStyle;rounded=0;orthogonalLoop=1;jettySize=auto;html=1;exitX=0.5;exitY=0;exitDx=0;exitDy=0;entryX=0.5;entryY=1;entryDx=0;entryDy=0;strokeWidth=5;strokeColor=#333333;startArrow=classic;startFill=1;endArrow=none;endFill=0;" parent="1" source="5ZRrx6sR0JSF5xaEXeh_-1" target="o5fnol5vWYC97HsQhqdw-37" edge="1">
          <mxGeometry relative="1" as="geometry">
            <mxPoint x="1624" y="1130" as="sourcePoint" />
            <mxPoint x="1624" y="1084" as="targetPoint" />
            <Array as="points">
              <mxPoint x="1641" y="690" />
              <mxPoint x="1460" y="690" />
            </Array>
          </mxGeometry>
        </mxCell>
        <mxCell id="o5fnol5vWYC97HsQhqdw-84" style="edgeStyle=orthogonalEdgeStyle;rounded=0;orthogonalLoop=1;jettySize=auto;html=1;exitX=0.5;exitY=1;exitDx=0;exitDy=0;entryX=0.5;entryY=0;entryDx=0;entryDy=0;strokeWidth=5;strokeColor=#333333;" parent="1" source="o5fnol5vWYC97HsQhqdw-9" target="o5fnol5vWYC97HsQhqdw-43" edge="1">
          <mxGeometry relative="1" as="geometry">
            <mxPoint x="1243.5900000000001" y="1560" as="targetPoint" />
            <Array as="points">
              <mxPoint x="1614" y="1490" />
              <mxPoint x="1428" y="1490" />
            </Array>
          </mxGeometry>
        </mxCell>
        <mxCell id="o5fnol5vWYC97HsQhqdw-85" style="edgeStyle=orthogonalEdgeStyle;rounded=0;orthogonalLoop=1;jettySize=auto;html=1;exitX=0.5;exitY=1;exitDx=0;exitDy=0;entryX=0.5;entryY=0;entryDx=0;entryDy=0;strokeWidth=5;strokeColor=#333333;" parent="1" source="o5fnol5vWYC97HsQhqdw-9" target="o5fnol5vWYC97HsQhqdw-70" edge="1">
          <mxGeometry relative="1" as="geometry" />
        </mxCell>
        <mxCell id="o5fnol5vWYC97HsQhqdw-86" style="edgeStyle=orthogonalEdgeStyle;rounded=0;orthogonalLoop=1;jettySize=auto;html=1;exitX=0.5;exitY=1;exitDx=0;exitDy=0;entryX=0.5;entryY=0;entryDx=0;entryDy=0;strokeWidth=5;strokeColor=#333333;" parent="1" source="o5fnol5vWYC97HsQhqdw-9" target="o5fnol5vWYC97HsQhqdw-71" edge="1">
          <mxGeometry relative="1" as="geometry">
            <Array as="points">
              <mxPoint x="1614" y="1490" />
              <mxPoint x="1854" y="1490" />
            </Array>
          </mxGeometry>
        </mxCell>
        <mxCell id="o5fnol5vWYC97HsQhqdw-87" value="Keep between 1 and 10 replicas" style="text;html=1;strokeColor=none;fillColor=none;align=center;verticalAlign=middle;whiteSpace=wrap;rounded=0;fontSize=30;" parent="1" vertex="1">
          <mxGeometry x="1620" y="1855" width="240" height="30" as="geometry" />
        </mxCell>
        <mxCell id="o5fnol5vWYC97HsQhqdw-103" style="edgeStyle=orthogonalEdgeStyle;rounded=0;orthogonalLoop=1;jettySize=auto;html=1;exitX=0.5;exitY=0;exitDx=0;exitDy=0;entryX=0.5;entryY=1;entryDx=0;entryDy=0;strokeWidth=5;strokeColor=#333333;startArrow=classic;startFill=1;" parent="1" source="o5fnol5vWYC97HsQhqdw-97" edge="1">
          <mxGeometry relative="1" as="geometry">
            <mxPoint x="495" y="1944" as="targetPoint" />
          </mxGeometry>
        </mxCell>
        <mxCell id="o5fnol5vWYC97HsQhqdw-102" style="edgeStyle=orthogonalEdgeStyle;rounded=0;orthogonalLoop=1;jettySize=auto;html=1;exitX=0.5;exitY=0;exitDx=0;exitDy=0;entryX=0.5;entryY=1;entryDx=0;entryDy=0;strokeWidth=5;strokeColor=#333333;startArrow=classic;startFill=1;" parent="1" source="o5fnol5vWYC97HsQhqdw-99" edge="1">
          <mxGeometry relative="1" as="geometry">
            <mxPoint x="495" y="2150" as="targetPoint" />
          </mxGeometry>
        </mxCell>
        <mxCell id="o5fnol5vWYC97HsQhqdw-9" value="" style="shape=image;verticalLabelPosition=bottom;labelBackgroundColor=default;verticalAlign=top;aspect=fixed;imageAspect=0;image=https://github.com/kubernetes/community/raw/master/icons/png/resources/labeled/svc-128.png;" parent="1" vertex="1">
          <mxGeometry x="1550" y="1300" width="128" height="124" as="geometry" />
        </mxCell>
        <mxCell id="o5fnol5vWYC97HsQhqdw-10" value="" style="shape=image;verticalLabelPosition=bottom;labelBackgroundColor=default;verticalAlign=top;aspect=fixed;imageAspect=0;image=https://github.com/kubernetes/community/raw/master/icons/png/resources/labeled/ing-128.png;" parent="1" vertex="1">
          <mxGeometry x="1550" y="1022" width="128" height="124" as="geometry" />
        </mxCell>
        <mxCell id="o5fnol5vWYC97HsQhqdw-58" style="edgeStyle=orthogonalEdgeStyle;rounded=0;orthogonalLoop=1;jettySize=auto;html=1;entryX=0.5;entryY=1;entryDx=0;entryDy=0;strokeWidth=5;strokeColor=#333333;startArrow=classic;startFill=1;endArrow=none;endFill=0;exitX=0.5;exitY=0;exitDx=0;exitDy=0;" parent="1" source="o5fnol5vWYC97HsQhqdw-9" target="o5fnol5vWYC97HsQhqdw-10" edge="1">
          <mxGeometry relative="1" as="geometry">
            <mxPoint x="1614" y="1350" as="sourcePoint" />
            <mxPoint x="1650" y="1522" as="targetPoint" />
          </mxGeometry>
        </mxCell>
        <mxCell id="o5fnol5vWYC97HsQhqdw-105" style="rounded=0;orthogonalLoop=1;jettySize=auto;html=1;entryX=1;entryY=0.5;entryDx=0;entryDy=0;strokeWidth=4;dashed=1;strokeColor=#333333;exitX=0.036;exitY=-0.011;exitDx=0;exitDy=0;exitPerimeter=0;edgeStyle=orthogonalEdgeStyle;" parent="1" source="o5fnol5vWYC97HsQhqdw-122" target="5ZRrx6sR0JSF5xaEXeh_-17" edge="1">
          <mxGeometry relative="1" as="geometry">
            <mxPoint x="1535.5900000000001" y="1561.52" as="sourcePoint" />
            <Array as="points">
              <mxPoint x="1367" y="1465" />
            </Array>
          </mxGeometry>
        </mxCell>
        <mxCell id="o5fnol5vWYC97HsQhqdw-108" style="rounded=0;orthogonalLoop=1;jettySize=auto;html=1;entryX=1;entryY=0.75;entryDx=0;entryDy=0;dashed=1;strokeWidth=4;strokeColor=#333333;exitX=0;exitY=1;exitDx=0;exitDy=0;edgeStyle=orthogonalEdgeStyle;" parent="1" target="5ZRrx6sR0JSF5xaEXeh_-12" edge="1">
          <mxGeometry relative="1" as="geometry">
            <mxPoint x="1329.9999999999995" y="1783" as="sourcePoint" />
            <mxPoint x="406.1800000000003" y="1780" as="targetPoint" />
          </mxGeometry>
        </mxCell>
        <mxCell id="o5fnol5vWYC97HsQhqdw-109" value="Caching" style="text;html=1;strokeColor=none;fillColor=none;align=center;verticalAlign=middle;whiteSpace=wrap;rounded=0;fontSize=30;" parent="1" vertex="1">
          <mxGeometry x="720" y="1424" width="60" height="30" as="geometry" />
        </mxCell>
        <mxCell id="o5fnol5vWYC97HsQhqdw-110" value="Collections Storage" style="text;html=1;strokeColor=none;fillColor=none;align=center;verticalAlign=middle;whiteSpace=wrap;rounded=0;fontSize=30;" parent="1" vertex="1">
          <mxGeometry x="640" y="1614.54" width="264" height="30" as="geometry" />
        </mxCell>
        <mxCell id="o5fnol5vWYC97HsQhqdw-112" style="rounded=0;orthogonalLoop=1;jettySize=auto;html=1;exitX=0;exitY=0.5;exitDx=0;exitDy=0;strokeWidth=4;dashed=1;strokeColor=#333333;entryX=1;entryY=0.25;entryDx=0;entryDy=0;edgeStyle=entityRelationEdgeStyle;" parent="1" source="o5fnol5vWYC97HsQhqdw-33" target="5ZRrx6sR0JSF5xaEXeh_-12" edge="1">
          <mxGeometry relative="1" as="geometry">
            <mxPoint x="450" y="1700" as="targetPoint" />
          </mxGeometry>
        </mxCell>
        <mxCell id="o5fnol5vWYC97HsQhqdw-114" value="" style="shape=image;verticalLabelPosition=bottom;labelBackgroundColor=default;verticalAlign=top;aspect=fixed;imageAspect=0;image=https://github.com/kubernetes/community/raw/master/icons/png/resources/labeled/user-128.png;" parent="1" vertex="1">
          <mxGeometry x="1710.5" y="470" width="128" height="124" as="geometry" />
        </mxCell>
        <mxCell id="o5fnol5vWYC97HsQhqdw-117" style="edgeStyle=orthogonalEdgeStyle;rounded=0;orthogonalLoop=1;jettySize=auto;html=1;entryX=0.5;entryY=1;entryDx=0;entryDy=0;strokeWidth=5;strokeColor=#333333;startArrow=classic;startFill=1;endArrow=none;endFill=0;" parent="1" target="o5fnol5vWYC97HsQhqdw-114" edge="1">
          <mxGeometry relative="1" as="geometry">
            <mxPoint x="1614" y="760" as="sourcePoint" />
            <mxPoint x="1424" y="784" as="targetPoint" />
            <Array as="points">
              <mxPoint x="1640" y="690" />
              <mxPoint x="1781" y="690" />
            </Array>
          </mxGeometry>
        </mxCell>
        <mxCell id="o5fnol5vWYC97HsQhqdw-118" value="Consumidor" style="text;html=1;strokeColor=none;fillColor=none;align=center;verticalAlign=middle;whiteSpace=wrap;rounded=0;fontSize=30;" parent="1" vertex="1">
          <mxGeometry x="1363.5" y="410" width="180" height="50" as="geometry" />
        </mxCell>
        <mxCell id="o5fnol5vWYC97HsQhqdw-119" value="Gateway de Pagamento" style="text;html=1;strokeColor=none;fillColor=none;align=center;verticalAlign=middle;whiteSpace=wrap;rounded=0;fontSize=30;" parent="1" vertex="1">
          <mxGeometry x="1684.5" y="410" width="180" height="50" as="geometry" />
        </mxCell>
        <mxCell id="o5fnol5vWYC97HsQhqdw-121" value="Application Service" style="text;html=1;strokeColor=none;fillColor=none;align=center;verticalAlign=middle;whiteSpace=wrap;rounded=0;fontSize=30;" parent="1" vertex="1">
          <mxGeometry x="1685" y="1350" width="264" height="30" as="geometry" />
        </mxCell>
        <mxCell id="o5fnol5vWYC97HsQhqdw-124" value="" style="group" parent="1" vertex="1" connectable="0">
          <mxGeometry x="1920" y="1670" width="419.03" height="117.48954277144082" as="geometry" />
        </mxCell>
        <mxCell id="D0wNAowwjaqCvrToGeFX-17" value="" style="shape=image;verticalLabelPosition=bottom;labelBackgroundColor=default;verticalAlign=top;aspect=fixed;imageAspect=0;image=https://cdn.icon-icons.com/icons2/2699/PNG/512/nestjs_logo_icon_169927.png;clipPath=inset(13.33% 6% 15.33% 5.67%);container=0;" parent="o5fnol5vWYC97HsQhqdw-124" vertex="1">
          <mxGeometry x="284.28243078211267" y="31.46863497494803" width="134.74756921788733" height="54.401549255895056" as="geometry" />
        </mxCell>
        <mxCell id="D0wNAowwjaqCvrToGeFX-16" value="" style="shape=image;verticalLabelPosition=bottom;labelBackgroundColor=default;verticalAlign=top;aspect=fixed;imageAspect=0;image=https://www.svgrepo.com/show/354479/typescript.svg;container=0;" parent="o5fnol5vWYC97HsQhqdw-124" vertex="1">
          <mxGeometry x="139.3942621651986" width="117.48954277144082" height="117.48954277144082" as="geometry" />
        </mxCell>
        <mxCell id="D0wNAowwjaqCvrToGeFX-15" value="" style="shape=image;verticalLabelPosition=bottom;labelBackgroundColor=default;verticalAlign=top;aspect=fixed;imageAspect=0;image=https://upload.wikimedia.org/wikipedia/commons/thumb/d/d9/Node.js_logo.svg/2560px-Node.js_logo.svg.png;container=0;" parent="o5fnol5vWYC97HsQhqdw-124" vertex="1">
          <mxGeometry y="25.021715928564674" width="119.21031779350356" height="72.91525003126122" as="geometry" />
        </mxCell>
        <mxCell id="D0wNAowwjaqCvrToGeFX-18" value="&lt;font style=&quot;font-size: 21px;&quot;&gt;+&lt;/font&gt;" style="text;html=1;strokeColor=none;fillColor=none;align=center;verticalAlign=middle;whiteSpace=wrap;rounded=0;container=0;" parent="o5fnol5vWYC97HsQhqdw-124" vertex="1">
          <mxGeometry x="90.45910337653368" y="38.50102699841182" width="78.31504967378545" height="34.91794600317628" as="geometry" />
        </mxCell>
        <mxCell id="D0wNAowwjaqCvrToGeFX-19" value="&lt;font style=&quot;font-size: 21px;&quot;&gt;+&lt;/font&gt;" style="text;html=1;strokeColor=none;fillColor=none;align=center;verticalAlign=middle;whiteSpace=wrap;rounded=0;container=0;" parent="o5fnol5vWYC97HsQhqdw-124" vertex="1">
          <mxGeometry x="234.0262524385173" y="38.50102699841182" width="78.31504967378545" height="34.91794600317628" as="geometry" />
        </mxCell>
        <mxCell id="o5fnol5vWYC97HsQhqdw-128" value="Application Pods" style="text;html=1;strokeColor=none;fillColor=none;align=center;verticalAlign=middle;whiteSpace=wrap;rounded=0;fontSize=36;fontStyle=1;fontColor=#333333;" parent="o5fnol5vWYC97HsQhqdw-124" vertex="1">
          <mxGeometry x="37.51999999999998" y="-26.980000000000018" width="344" height="52" as="geometry" />
        </mxCell>
        <mxCell id="o5fnol5vWYC97HsQhqdw-43" value="" style="shape=image;verticalLabelPosition=bottom;labelBackgroundColor=default;verticalAlign=top;aspect=fixed;imageAspect=0;image=https://github.com/kubernetes/community/raw/master/icons/png/resources/labeled/pod-128.png;container=0;" parent="1" vertex="1">
          <mxGeometry x="1364" y="1588" width="128" height="124" as="geometry" />
        </mxCell>
        <mxCell id="5ZRrx6sR0JSF5xaEXeh_-3" style="edgeStyle=orthogonalEdgeStyle;rounded=0;orthogonalLoop=1;jettySize=auto;html=1;exitX=0.5;exitY=1;exitDx=0;exitDy=0;entryX=0.5;entryY=0;entryDx=0;entryDy=0;strokeWidth=5;strokeColor=#333333;" edge="1" parent="1" source="5ZRrx6sR0JSF5xaEXeh_-2" target="o5fnol5vWYC97HsQhqdw-10">
          <mxGeometry relative="1" as="geometry" />
        </mxCell>
        <mxCell id="5ZRrx6sR0JSF5xaEXeh_-19" value="" style="group" vertex="1" connectable="0" parent="1">
          <mxGeometry x="213.09000000000046" y="1400" width="276.18" height="190" as="geometry" />
        </mxCell>
        <mxCell id="5ZRrx6sR0JSF5xaEXeh_-17" value="" style="shape=image;verticalLabelPosition=bottom;labelBackgroundColor=default;verticalAlign=top;aspect=fixed;imageAspect=0;image=data:image/png,iVBORw0KGgoAAAANSUhEUgAAAOEAAADhCAYAAAA+s9J6AAAABHNCSVQICAgIfAhkiAAAIABJREFUeF7svQeYZNd133kq585hcsTMAAOAAAkSIMEgEoBkKEvUWjLXIiWKSl7JkhVXwWtZ1irsZ+3aq09aW95PIi1ZoihTXC69H4NEi5kUA0gQRI6Tp3s6VlfO+/vf6tdTU1P9Xs/0DGYG6AvUVHW9V/fdd9899+T/Cb35+x7vmE/zDoZCobWz1vs8qJtwODzo67Xv2ue7dd95fXvvnc754V3Kdb0LtHr67+9b53Q63RMup2/3+9X+B/Xdez/eeNY7zzve/977cC5njJ1w3wT3XaB/PL3XGDT+/vGZXfh8+/tr2uaenze/vWPpH+PFYzr/TeC5AfPTPwf9zyCo/04P3aw3Tn8KWe9XW99vzcDWDFyxGdgiwis2lVsdbc3A5c3AFhFe3rxt/WprBq7YDGwR4RWbyq2Otmbg8mZgiwgvb962frU1A1dsBraI8IpN5VZHWzNweTOwRYSXN29bv9qagSs2A9FeP9ygXtf8ID3+ut7feH6Qfv+Q11e73R7U7dp3F/kR167T9S/1+ol03X6/TJAfMdLraOvrW4Pw/JQ6dL7v8761ID9iyOt/te9Oj19M/Qf56frvf715dH2t8wy8yez3Yen7ULt3Arwze94j3Xv1+u5fD/3z3d9DvxvYG6L33r/L999fK9R/xoVXCFmPn3PAHAf5Eb31N2hu3JUC5kf9D1p3+qm+7z/Wfx1/Ly2Xpx//Geif8Q383f8QN/CTrVO2ZuBlPQNXjAiDdumX9Sxv3fzWDPjMQNTn2IYOecQnNtzLmnu/31BHWyddkxkIklyCxNFrMuiX2EWvOCf05OSX2Dxt3c7WDFy1GbginNDbLbc44VV7Tlet4yBOeNUuvNXx2gxcEU64pQ9uraitGbj8GbgiRKjLbxHi5T+ErV++vGcg2mmd9+P1+zgccfX5vfqnK7xevtSqT6fVarmfDOpb39/ofsQgL0/I301qrc6F89NvCFnv7zUVoOeBBG2Eg55BOMCNGCSu9j/f9cbrDdPrz3sPOU/Z+eb93ntvhyIXHO//Y81PqwM+fsReVam3j7VxrJcvG+AHNvIR/eY9GvXX+MQFrxgn7J+crb+3ZmBrBjY2A/5kurE+ts7amoGrNgNBnLif8161gVxmx0HjV7dbRHiZk/ty+VnQIrreieBGeE5bRHgjPKWtMd6wMxC0iW1xwhv20b54Aw9aRFebE17r678YM71lmHkxZnnrGlsz4DMDW+Koz+RsHdqagc3OQBAnV/8XEOEgf8cg31Lvd+2eHLdBA147d51cOM9LNOg66u/a+xF7hIUBPrVWqLl229499N5Lp+MvbKzlyw3wcanjzeYjXphOef6vQYtj0DPYrB9x0HV610l/PqV3vvfeP3v9c9zqWVf9x9x1etfnoDkOwB31xjGwb3UflI/YfwO9N89n3X/AKX2/WP0zaGIH/2rr25fDDFwPa+NyxrDR32z0vEt51oFE2HvR/s9XY0CXMvitc6+fGehfGy/WyNa7rr6/1PXpnT/od+td50rcZyAR6iK9NzRogFdiIFt93JgzsN7auBwiuNwZWG8MG+mvf5ze+va+X6/v/t9t5FrrnRNIhN6g1EH/ANfrdOv7l98MXKu1caXW56B+ep/i1by/QCL0iK93EN7gegf+8lt2W3fsrY1B60Fr48VaH73XCiKm/qfm99v+e+jv+0rd34aIcNDA+7/b+vvlOwP9i/Naz8TlEIf3m0G/vdr3F0iE6w1g0GCv9eRvXf/azcB66+Rqj2i9625mfQ767XrXuRL3F1U+2CD/kDrX9/1+nN6LamC9+XKDfClBfsRUc5gaf238gXVrhcmtizYtBFhoo1W1er1m0fSo/30GJOxFIv35aH3OvgvqC/bimnbPC0f9kSN7/USDci+jAb9vN8/7GQfdaKcf2LPvpE7rwvvpfwbtzvn7H/Sce78btPgunr8LB9CJnt/HB7hROXnwt14v66Wjesebnb6ETK877z0S9s15TYRHHLSoTm+0qZYov26UNc9a64RalqjFz99Q71BXfYqhVT/ioLnTDzeLa8rKvzpZFI44g2Z39dZb8ZPoDrisw3GLhGNMWMRarbBFoiM2lExYs9o4P0mDPgVcJ9RbJXTQ73u+61/AOtSsBWTlWj+RX3iRDovEr4Uj/kFLnf4qqn2dxXo2mQsWyipobqvHFdwLpOt9vgBcd8BAQwHXjwTMb7QXnXdA/+G2//x0LsjavbgD2MTFX/Z802ifNiXWsqLIvyWFmD010mHOocxWT0K7byccvJQ1HdRX/3H/FdB/9oC/ewfX/9md7s9IrNEcYTIgWhZjPJaAeEWIbQs1mNxwyhKR0wOu2vNVABEO2t3X63DQbhcJ4GRBm03g8Zj/I4gGcMLGKnKBm+rVuei9pod8MOjeen+z3pwEzV8ogMh4sut17b7vBBBRJOj5BsxPnDUUCUfdGmtV20S4QI6xLAQJUbK/N1Ml3/H1HvTW95UmSP8VsMHheQ9KD/pSBxiLj1unUYPw6jBmWHO0YpFI1Wr1kpWLdcuGd/qPIiDsyP/H54+ut0itR5wb1FeguNYbNjWgg1bAIo4GLeI+TttPiGxna1dd9x4HjGujX/X2P+g3QZtQOCCsLxIkaQRw6nq7ZHGFhqHihOJtegtZNNGN12yx+v2VgfNuOe8+eglx0P1eznebJsJ+7ucRogYT9AB0TqH2hNM7QwQp1lAJW+GIxaMxiyb5HEN8CJd97yuoJrifTntBxwO4iI63+nWS/tFcpHNeeEIQJ2kEcFompv+KF/zd7tmEBhFZu2eRDzru2zkHA+cvaBMM4GTtgOPhAIyWoOdvnbi1Y9wI+l8ros2edytbs9myZqNlqdh40BS444PW+YZ+uIGTNk2E3gD17hFg767Bl77DGBkaR1yIIyZErVENW70oYoxbLJKCGFNWjD7r+/tQgM4VgBO01reMKm78q+/egcCdPohT+dslLBqgE4YDOGW7V6/pnWrvcy8nXv2u+3y6AwvaJEI9hpdBDyLg8RKAPuhX578bZMy64BcBeltntaDNelfJhLPWZB+vNdsQn9QdBGBYYSwesVQOTlj1F0fXk/KC5m298Qz6/ooQYX/HlyKSVvPDVi6X0QzqlkklER06Vq7MI442LIa+FIS2FSCt8Psgw0p39L0L8wKOEaBztIMMB0GrNOAJBEhbFkXfWY/D6ft2HxH3nxu0mHrP73/O+jvweMAmOajP3u+CDEdBjLgdPYfdocw4W5bE0NcKJ61WblojNGRxDKOxVNAIuse9NX0pa3tjPV8BjJn12PRGB5tMwPkqKzYxGbZ737Ddbr9zyJKphrXa8xZLNC3e3OZ/LwGLPGiReZ33L07v+0YfJJ//YC4+GiTOdRCL/FqvuDnovHBPKo13D7334umc691f0PwEHQ8ynASNf9A99X4XpBMHGGcxvtTggEMWSyctgi54dtHskUfz9vQzxy2f19xPBw3houMbXdsX/XCdL0Jv+vav+gpMqh+33gMM2gV1zUG/7f1uplSwccvbf/j9N9rB/YuWSu2wGlarVmfB0pLXIwEuinVubMNf+979BnoJMLygTPh2EiBt+v7WzW8Ap2Y38+8j6Pf+v978UX9tJbj/Pj9p/w/akTZqDjaGeA39NmkNZK4aJz32nNlv/2rebNfFftTe9Rm0CfU+v0GboPf7QXTgjTVAGOq/pSvzd+9OMpTL2eEdo3bToaQlE2lXNTHOjmUmy4xZxaRVX+jp2Oxz672LAEYafMObHIw/iQZfPuiMIJ046PpBt3e1fx90f0F7SJQBOrURm0OzWbUGhppIomh79o/Ya14XtS+fvPgOrjSnC7qHq06EvTfU/1mDU8TH0FCUnYo/WhiMmbBaq4Z/sCumxdrnxbVBO02QzhCk+AeodEHzt+njQeLUZu9PJvnruQXw6cChB+mEDREh+3gkXHfuiRiO+jq8MBou0Pc5BJWpNWlt0PoMHMAVOOGqE6HG2MuS+3eZeESRMrWu1KZtjUnrME3yGSJJMFn187d58aYVOAWhAHGQJxDYx9U84ao/gIBy5cRd+d/eZucn4PcBxk3pM/7jC3i+bay7LUIisbNbDbqLhDLWSQ8jZ/Gfs0wTyuaFqHGt/vXpf/Erc/Sqr4H+3UXcrPemDY9pNFqF2HRDsEPWRIzJIb7B5hbMRrZ1zVfrPYoAiI/AWdqsThZ0gfXG7f3uMvaVoEtecDwg1uCa88nN3n/AFmJVBKk07i7IzxJpFplMDC2MNHDHaIh11mlcxAkvWJ+XNNuXd/JVJ0INa72dRt+XVhATnBuB2WnIpM4cEd1QJnj7U588bb/2R8WBxh31K4LuVXgHTUHg8c2a0AN26qDrBy3CQOtqACcIB4TFxWWn92lB49/s8SBxPOj+VZDFr+2MvWBvef12+8Hvn7SRDCYZ7DDRWA1ZC59hAlMpPNJvfQbdn9+1N3rsRSHC/sH0cseIDDBEMLjqPOGMtZmnEI7UCA7V2dmiZaZlyxpsZdX3QVVvAifxKhNhYFib/xrCoudPpkH3F4r5/77TqfY/ngv+Duw/YBMKIqIgSSTo90EukMb8IUsNpSw1rNtio28nrNLIWyc2ZWXcFyLC/vZii6RXnQgHiaO6ae/7eDRt5dJJF7St9Sa1ECkdp33Ksplxm2icD1vrXRDe5xCREH4t6CESUu/388BjAWuQ+/EfXxAniAQoTeEATtBp+EdHbpbIgn4fZL3c7P0HxH9bOVqyBpFXLTb5SussJEcsMnqheyqt7axDOfK7O+F6azVwEWzyBJdPqDZogev7iIbrs06D/Ih+RKCbbjSO2/DwEXihWTYKIRLAnexkrBmqWNUKli93bDg7jLU0bo0KsX9MZyzLZ0Lg87UVy0bESddvtUrV0ukxpBYiJRS/FC5ZKNb1PYaJUw1juvZrrZWbYLdE9MSqjI1HKdEZdt1qFfBlFq3cnLBcJoMe27FiYcmFeg4PjTChMSKBqhid/IkgFsAKUvG9NjN/2uKppmVHY1YqL5NnWbehzJClkmn+HuKadWvUi6bcxGgowWZGwDLGrhiSpuJx/Vpg7CVbYghdPR4dIgia/mqEeWHMibBJiqtEchW6b1sJf6+eZ478z3aVSKdqnOeWtWL4rN/lrY7RJJEg04EY3Ea96exEWjNK4dJ9phJdG0Kj0XDnhPC5KOUtHk9bhfktYeGMIkElSH2Lh1LEg8Lv6CeGVS+RjFi1smjDMLw0WTmd2C4yKeCK0Jx05Ur2GGOe9B2fJ6rqpEE0stn6iOrXfwX6Du/KHNROv5ZY7AINUZa1cAjcjUqhTi5apY1TlfjSeDqEr4cHXi4xoTHLJlnsDX9xamgsY0uLCzzUmI2MjxEKh52stOJ82JlMzpqEx/m11OQ3SDDGWusCqdEfmsS48uNoLMmCy1gKv1Orjv+JyJexiTEWUccKhRIEy3iTbBBN/00iCNx3of6oZSfJq8SVs5wv40sdsrHhIaSHhi3MkCGQnbdMNmEpXs16xOrkP0pNbDKXpRIbWmbC7/YCdeoORrM2unqxKt28w/UJsE8kuec2BFm05RmeQy4NUWSsXs1buVa2sdFha7fKdnb2eca12/f6sWTOKrW6IzjllYrARGxhwvEi9FksLPLMIDw24RhzqiTaGtEc7XaZZ8C1w+NuTdSJAa13Ko6AQ5GmNUnabTdDlhwi4zDJhOAwbOF1jkDw8taLWOvlAF3Ad+RX7uA1J0ISJiDCJlIFQ3Ect+umwEYK4cCHlVWRTTLpFVtYWbY4Zq3hsUn+jtvScol4QP/JKLfmLJpFvMUA0YnMW5FFqnjUCBcuV5YDda5Ou8jigKW0EhKSEZsZHw9U4Wwt9VWbYydPWpWFpCz4COkfIV6pdBYiKLGX+BM5K9v3BiKpGEw1YfW8CD1CfG2GDSQEd0/bzp3TtlA4a9UqqV8lCVjKMscXlko47tJicVaay779Bxk2otFh5i7Mnbec01vcsF4pW72JLzcZt4O7Jgn/6pr5wwRZFIrLthAqWG6IORgfgkD8s2BWChA5hKXx5uCcEZ5vrVaDSLBaihiRKLovLoyPr5u00oRoq5bNkidYS7JykADIkOhE6mx+BGgjoivmVv0urazYPK6JIlEzsRTnsJHEkKJ0R3HC2a6Hds2JUGuw3ZHIs7oY2b28KA8FdqeS2xDrChwNWzoHFAYEu7A0zwNBJCE5s7Nabnq9yWxX90AYNTJZ6vRTIWo+ZJl0DuJNWoXdMyhfLVS9hWul4AbK+IegElUnGrIMrCL4jVoTbpNF7+DBIhaFlLVNbmQLXay4vGBTE9vXG5r7PiiVp16HW1cgLBZMNkOGOCb1lZUZoBpKVqzHILQ0CzbMPBFzC1HUGyU2BMRkRLUGLtbhkYzv9YPE0QrEX0MMD8Nd0qksz0EbToMNoWHJdMxOzD6GMNIhxHDUMslRy6UmrFatWaEVIfY3x6bpvwmlR8acJCSCadJPGeLS34k4YiPitmUbTswVlxTHi8ej3CeiaKWAdADRtTNwROYc8bPJ3NTZDB2kBzuCZi2ViDvbQsoxQG1UvEIQOCQYcjlO175dcyLUpDgRAnLQoomtavItJpTQbluZqdrYeI60k2EWWIHXCmKJRFXF/MGPAnJlMu1dVl7JWz0ywwOBo/K7ynzeSh10CeHZoEf4tWZ4Fl00arFQmp0afQviq7PILDZso9md6LQsjjoBB/STimfdhrGyeNpGcxHbOY4Yt+TPiWSE8muNWAWdBw6YHjI2eitVKzYylLMIeu4ikkGzzqaSGuecpBWW5xkPxgduKZfEKY04X1pY8uveGcH82vTUkNXaK3D1FVssYMuO70SMn0QwyLKJ5eFMwzY+kcERXuJaJ20oqw3OnNRSXKxZOoHK4NOUr9nV9bQJIw/BCTMJ6bWIjCvomXHp1BBeIgPHbzlRNI6eKP1Mm2KrheFFeqQiOxBho7geOiE9jzR9ha2YnzHFe0g176DXKq1X/zujM2vM+aavcbvmRKjJ9BReF7xBIq+YYidUtuntOcvGnrRGMW6VIqIHztUMIktuGJEMMaewsgSX8yei/PKX7O57p+0Vr5xgscQtE8s5nTNCaksm27YV8hf9WnqiYYVF+DAcJ424dfLssn3mi8/Y40/P2fJK0hKMP5aQmBSxudlTGDBKdtcrxuxVt07Y/p1Zi2W0Wazf0ODWP8iRSIpNo4S4ji66MFuzL33luD35LMaZ5Sl0poOWyS1ilEjb8twSHGnGXnFn2u597X4bH0qbDMu5Md/uMS75H69Cw534NpvP5+2hr52xZ55FP2+NsilC4HD6aH2XLRXyluiU7JYDMbv7rimbnEavj+5AYlC+nn//0IvTYWUfVP609mAR24kTJ+348eP2+KndGGBaiN+InUR0SM8NOSe7uKNcyxX0TwQUNsE0nDeC7l6tYNSrLSCVtG0EnTnWmrRmKWJNwiPXeB/XCXL/+I/8yh295kTocUHdkmNuzpqIco4S/YpXbrOf/LGqfeJTj9ijTxYsO3TE7YizM4uIYGUbHUkHLqL776/aO9613XZtx1JJ6BJaBjSegWOgpEdlbMj6ziaYbxhj4HIaH7PVtBG76fBR+/BHi/bFf2gasCXswi0HmdBcnrXbj4zbT7/rkN16U3ePlZXXv/lTQdvSTl92wjrWyNffc9j+43uetc8/NG9jU9ttubiAtgZ3YLt/7b277Yd/aBriX7W4yQ2W8L9+0CYQY/ORdFcPDdutR4btL//qmD19DHUArh+DS8kNWW/O2+tfO2lv//4x2zklKyIEpeHyCjm79/pNOqwT7hGDohhf4nD0btuFZXfSfv0Pw/aNR54ks2bZPSupH2GBgrnFgtg6jEWU+4zC+WQ5LZfy6MenLY1jfmo6Yw9+6y67axTRGMk2hWXbYdowOBGwxnc9tGtOhFLE1RRo3fWJkXqCXhOK123ffrPDB3fb93zvbvu7vzf7s7/4mj3PDrlz50H0kYjNnD2GccBfrv+2+95ke1gYUQiwVCnacIr8MaSQUBWwH3Sc7upe/1Fg5XYhde1ax6qlMzh9o3bnrdN29mzCvvDZr6KnThJed8qyLIZt2+L22tfusSOHRIArrJHjLI7b1+9cR4JcCCwWuVQa5XMWIyl1374Je/U9SXvo6cdtCfdNBLdOu5ZH/E3YHbd1CTBhZ61cmLU04rI1/E3w/nya8UXmQDs4Y4nclN15dLs9yr0fO30SoxYcCd24jPU2nT1rt935KtvO1IYxhIXF0iIAeCHGR5QZ49cg2Dj3yOPsUq7mg5ekojhqx12vMXvuObbkagGOL8spWinybg3rbKNZIStCHkCug84oN4bBkXftSdr9991m3/yAtvOmjaInWhgXDltwyPDaiwJ5plncPM5Ueo1b1POD9Doqe8cUhKu4WT9iowlx1PNMzg6sfotMJwmYyPXGDhw1xK7aiOXYKt764ApiVtZ++1+dsZNnWGbFc1ZJIetUhE8DVggWwXg8htUMPQHjThtUrVq1aTv2gC8ZOYNesBueguwjFDcShsNpobx9g0V8xPcRsNQsF5rlme2zcG6nFdAjciySOw5H7SwLcZoQqMzQFFbcsC2fCdvRA8uWboObIA4bwajD819pnmXTwEDTmSNJmVUXIyi2zHUjvCewaOLfC2kzkhtEwQd675oBMR7gWIYVRTNjiNH401hUtx3ic/GwNUfRBaU7J/GWzcftplvzFm8rNGQS6+x2q3GpRAS/HqJapXXOUm0SpCNwxvoxXD+HEO9n3L1HOnzffIGFuctx/XrsHOIdrg1M/s3wqCWyEDKGJoZqN99esff9DX7XEcTS2hDZL1huzw3ZHbcAGSH2FxlHR4N3y/jBPbR0fdfkIpBB5DxIIaYUi1UnOP8kbojdjPc419grWBiee9GS0ay9Zl/H/vocECij6J1ISVGecal0Aospv8MeEMNn28CaGudYLD9p23c27fd+R096wRqlce6xA6IalvSlMRsd4vfRRdZD2hagvWoddaYD59W412lylZxv56E8PaN2r059OX5E9X3NOWGoddBOn3oaI4PZtiEi3usLiBdpHjy6WwgHrBvhii2xXrcNH7Lf+/1DiJcft6zdCuGNuYfaBChYm4V8TcKSlLgia5p2xphcHBLp2Gnl69PxCEYLq8sPdTO7rr9O2RVZIKgKbgmIXUYByTHQH9ZZiC2gtWVQxajS5EFHQqtcSYRCH+3EuANPll7mAnd46c2Jnqsc0nvYAZdZ/zCBD/iucbNuw7rIdSCyUPQwG17EllpTzigGKfHfAQaEcUwXD085HS0kHyfIB5tpkSpz7W6Ia2syXf+rf+t+k+JjPDe+wsPKWPXMYqgdzHl38rsnr/NvozJko8OoBecitu/oMfuXv7YPy7R0xdNd95UMd1xzYkwbAGpMbQnV4Wa3ocyd1vOTcebattXpuHaDWMHocO6c2Rf+oWjVzgieB2QaEHgw+tkiO1ytPcMCXmaiER14Ui1EkP/wxw9gmTxh5TPAX+D/i+G0FSfvEqF0hi4aQJNVB+gyz5zFRH/imOFkmP03Zc+dwaeF6yHPyvB7HTvB3LSxbhAokMBR7QbBrLlUqwB9UrMazjyGrvJ1O4v1UNpRCYZXRX8rscbymP1XCGvLx+q8Mx5ey/i58lymyGvxCjydZuQpO1VY5toNQLO4JtevEf1T1qaEHNhCnEVqdN+tcKwAF9K5J/GvtRPPbmhhdI0kFxOrvsc9Z00JNrzqPIa6PnMNvRp8nquHIb2DdmZOj2gaAyd+0dUNaSNEWGdCQUexnej8b39n2pKhBcuK0Cs8M3a4VmdWf/DUJEOMOQLE82Uf+7jZ08+h214H7ZpzwtTwitupf+d3P2wffN9uu/vVt9soDOPALXE7eithUfCxiG3DJ7eCrw9vWSZlSUKy/vnP3my/+tPHIDyJcdInEYwxkylipWtx7c6uxH8XpMuDiUCcpXrLlupl+6mf/SqLoGCZ0AHfx5AZheh/8zYbGQUkCI4rjopzCjM9FOLcG564tU43lVulHdrP/Mhz1sTf1iRKIx5DPwnBxdNFizXx9cF2PN1YnFoGCjX5ST/+gaPrdLyxr59+/oj93M8+ZslJbVQMHdj3CKF7ZXRiy5BCht7VhvIygOC2OyCTKTwPZ3dtvmn/x78/Ygf3ylC2fusN6xp01nf8yAk2L56jRFNYlITSbtB9x0kvGSxaidi8lWbj9rv/+y7bBe3IAOYkAOdj9F+iaazHC6fP2a/9wiE7soOIGYIrpBcmibbpKGkXX3KR5//UM2bPPtGxlaWKPfPCjD16eskye/Yisg4a9Yv7nf8dvghjaTZXCHOahuvF7MzMkP3tfz9nswvP4muds8MYAX795x+waaBmsLijr6ADwr20RG87PGQPfFPOPvZw0cUIJhIy0MQQQbvRGyFET0eYOM47QCi2iLhRdE6CDI2heA7xF65LzGc7sSr3rXOv3/jiHJEwbNnsqtIPmm2c9RJridgplYnh5JBvY/dXrOLxswtkhOQYZxqXBr4zfFhNRK4qoWhayBFeWpQySMTEafmwIoPCJtsu9phKE7M9hqUIgQaxCMSHk7vIK8F9KXakQbCEwvqUZNeM5HErJIyQTtu+d2MX7yfE7sbHo+JDHh2XoB98u8KQheC5P4neej6Kw202eLi4D0rnGjaKCwmVjygYfstzjCWDiTBEeNxbHsjZ7TfhyGcTsRaBE/XTrB/cWIjVTyPxvPdvnrGHHytxX8Porcw/9oAax1fAHR0JIPKNzcDmzrrmRJiMTFueuKIoxGFM+qmFWRZEFkI5aM8/GbFf+Beftn/3h2/ChB2xydwQ+YcvoC9stzH8ifc/aPbhhwBzlf4iB63bbRU7KR9SlztmhhBvIIIOi04AUmUeWjVd5+GnUdTZLRFv/drIxAEDGlWrAhdmNwrDCBposkrbGB+CWq2EvprFsBKZtKGRHEseLkPkToWQuXoBzk74mTYxZfglAAAgAElEQVR9OchccRctUIXY4YFuBJj3g66t4xIEyrrOJIHV0RnmCA2QYPYQ8ZQhRHNx4cwwcUMQRI2wuKYLlhi15QXkww00jwC7c84P+vBCUqUwDiGc7RhA5F5oYbSRuqDLtAmeX8w8bCPJrGXHEtY1dK+wWaJ6iB26sfi3Kv7Lt71jG2qKNmgoWAEf6Z1WDS3aVx8bs9/+32aRVVIY1UYsQhxpk3tscN0WBq90WhYg5RRe2xZ8l1d5fDkc3doeFQsZirV5GEkbmx4B9jBH8G7Y5pYm7Bd/6cMcJ5iX4jCZIYiN4OllnMhvetMejDMYGqAyGWE8S26Xo3SJcWb+uHPmxjBrJxKKcsHoQ5yhPG8NoPbRTnxfRcLSlksYZYrzDgLHZSaxo6fI0k5hdQtqiUwSwmNrJwayUl0m4mWWhV9Cx8XeumMXfWF/BfY/pHCYEAsJv6KyIvR9k9C0zbawIXaxyFPEZrZdnzWc4UVUgCXiPOfcq0mAvMLAVAmrw1h0booshQgoeBtp63FC/bZBqlCL+2qjQngv/a2XYj0j6MBo23D/FJsOgfVYNbs+JN5k1QpoU5NpAhMiWNDh6Cs8HOm35EgSRm5//O45nj2+y927eP5YzpE9R3Ixy7HhdyoENyxu7P4ChrDpw9ecCAvlJwF66iAm5iy/oLClURccvFB42nKTi5YlCHjuzK32uc/CKJMYaqQD0kamULobRNAgUmpnlRHGS8vScY8QU1mJWUgpCjWTJRJCauASiSEORjGMyCLo94ogG2ZzRMWQGOq8Bs5ogGYDJ1zOY1EKamwAzj8lSAXEvXiUz1y2VipaYQ79hUjjkCx4Im7JcWt/k8ITBFcYdG2Ow1O5YYLVC3Ah3DcRRNAWSXzSyzLJFDo2BOo2MsXiYkXm9DqxqlHEfvjFBq6w/ikizhW4bQG9rUjkUDETsyLxpr2vSPU2QhOJilkgqoW0rIT8eKvBwx1ifoPaQVDTFMJt+EZjue5yDoUX7B++huHleNNyIwu2uHjCIW3nYmO4kRD/S2U7vDNhmcjzQd2/KMdd5I73Csmo4fAltFq7L0+006L2Pve+a+F7Abi9HMg7J6JkXViR9wpBBd7L5ZPgLlBgrVJgXGpRhV0KM1oa87/GVa2cQYeo22PfwEqqSBoWSg3jSk26HvR19z05wrVOETjMTkp4k8KWBBQlSaaFXyCMO0BrPCIRBw5DxBM77z6srnA29CDlQ/i9FM+BkRYCQb9EbnSVvFBq2toAEIvVdK/ePFzw1Pi+zU6fYUFXsvjCmMNQDZF5BLTxxrRVIgVCqhKUZEQ/Ukwkg44ptQtiCSNeRyPd4GvP/+S5K3rnX3OuTUjXXzNI6Tqr22sEjrCSI5wuTUBB+RAWWJQk5jtTwSrKPZV5zOElNgO+qwH3kMjfhAXxtBWHcLpjFaZ3x52VwWBwyXYD4w3W6hZhdNpNvHXhXVsuI2+cOpZVOJmeG7mg6BKWxI2U5v7iJRCxIfYR8hPbU8dsaYTAC8nl9WG4ZIO5Uffnsxz615631m45RCABe0WntVcPFqX/DGPebo98Gm/pMPeFvSDMRptoCNgpbZnJCSvj93phjnS40La1Ne09t+59dEMpu/Ou3fH8SyK1Xm3M7npJv/V79Y+7/29dV1vINW11FqUL5nRWRr20gHi5ECOloCzYrtHddvq0zMnb0GdwuOJb6jB0KflJdnNxGHFCTZr0wuaqcUaLc6u9xGeAoA5tju5Zsx7qGKCapF5ViC1m+2P9FIhyGnIl0VYKc2xWZHyg+sSpUVGpyVB15eZHBOZtmJfS6zUnwkhbjnQENvxVUXRCF6EAAUqPk7thYnLKFs/NEQuo5FluzXnvET0BlHRoWXAzFZRRNrXbxVbpzuMQlzIZW+feeDNQK6ewvEp31Gau5TGOlMPmPDxLhglRUcmQ5TGOiUaV+BwjN1O+4xppUyGMffrZZpoIT62f+Lzvu1Y3/ytcc1YRxW+gXUxEI+OKQs0qRcJ+8V2V8gnLxg/YmdPP2v3fQpSD7CCIb/L0dmTEYAIVzK3kX/ZCJkJmfmYYItakKGpmq720Z+DMaQw8UmhkIhc9YPkVd9t/GGkJtINkfDtEh0uCiIQqhr0i6VH5/BLHGjYyrBC/K9M8ovPEzUvp9ZoToWAQ2jiG2viTpGdZS6LCGDreDhsb2m/PogseOjBit98hkV+OWN0exg24ZytUsuefBSQKeaQbVY84gs6hJiIUJ91qL+0ZePL5BSvg0mop1cPFAHK/7MOvuG3UDuyJ27lT2Bpw2G8f34ZVHPsAx1LEuyZTwJQEZP1vZOZ6iW6N+/HDSyHGa06EMqJEsFSmwBpJkCgr2b1Uztvi8nGbX3rKpsdW7H/+5fvwDVagP5R4JtGx+FCOjIoWnBBfhYwGq5zQZb87RVozcc1vrzuOrX+v2gwsVpR7yBNXqkscCuT/EBxw39iIfds/Iq40PW+VpRds/vQJwKdqbO6AhmHcEzxGGaCwK9V6OeGl9nnNdUJZAyOYpDtYMjUxFbJIO+G8JbOAFKVb9rM/+mZ70+sVC6NynUS4sOE14YICb/3/PgRhQmjCIGlgMQ1DzB4CoCZlyzBzqcvhxju/nUrbpz9jdmgfhlF56gn+TpApgiBqb3odHtrwHvv85x6xxx7HZ1jbji18zPmbO+SADo1iWd98UNLapGnNddWgwXrierN7zYlQHEzYIW25LtDpdu0Zs1vu2Gt3g5p85Nao3ZRboHY9fj0yq6VdN4gLbCGWzsxP23v/7IwlJ7rgQHWl2hAa1Q1V67pTwjyQrfbSnoE2/s5Pf3rZvvVbI3Z4go1aQhBEWFekDpg8D3yT2a23vsKefpK8xOfNXjhudmJGQRPAcZAKE3cQ+ZffPMIb1EOXOwbbJaIyiHit18LjfXZYHF5btQStKmbdbwPAZz0H+qC+1UGLEK3ibN7+6dtT9rM/CS5kGZ0wSooJ20PH1asfJrSLP/QRLqjEzvmVjP3+Hzxm9ckKyQ2KCyWfDH+QgoMFehReDYBWJEhHuXJeg4h7fVhd35q/3ugiODRF+JkiFC3taL7aKUQaNo/O01bOjOLMzBCWFSUf7inM5bdbGcmo2ZjHOUziMDw8z267DUd0k7Sg9DixjUvbLZ/6mGWa9xDfqNhR3RrjlyTt5pgP+EEnhxMuJ7CNcz1OoHMJ83AUS3CJ+h0jU0S7UHE2HaeqkCJrct9AUvgeW+H8ENCAxOfwd92eLgyTYV521WlzWfBxluM2MjZq+ZUFixEwEGHeylilDUkiVs7ZSuobZI4dtG3CaQ0fw9lPrqQg4+NFRoUTn+8FYlUnP7MzMm9REO/ShBDWSjkLKbyPrIg41XFBi7VyEncSXRO3TkACkonD0sB4Juu3W3bAV/JMkw61DmMcjzmH000pTylezhXJA3OYo7zLDYUhwG22KhMeIfCh2py2UvEb9qfvadov/uQrbRIJipQXlw6lwl5kxwEBgqHmNcQOv14pvoTKAZ714Y8W7P3vGbXODgx8Ps2jD2/99q5j/awLvnwBkVzQGygqF/69ugC9fvA6Xjk/od+O4HOP+HWqdoDs+bd+315Om8WpDMfTvGjx8SAcFKJixbLofsT8lQjC/Yu/BN7hUy8Q4vYK1qs/kJLftTdyLBo7iImbhzmuVBjGItmB4SxjI4rG9nF5gJXCpNAQiVJVfg7nxjmejpDOz5qphpcJlxsBE3POhsEAraKHNFhduTiVgQimLvUgjA8az4+861G4ewNA4biz6mVGKKLamrATJ3eCmXPQVhDf06lJOweg07//A0CNCNlqVXGIS+8BqyW6C+Cp5Tr5dOQTEo/aRF+qwAGazTrGiZgVIMQUYYBR1IIlwJnSU8SsgJ+68twiNsckeZv44dgT6hBQlNAvAmBsJNUhl5obDYFgx3XyWBzx/YuOnVpmACqpPrzgOEjIGnRbV+y7UOhZgK922vNP1+3P/nze3vlDEzacJuOG6CoVB22GqxCt7k9Ur9DGqA0TFfD6e3fbw59t23Og0vW2y13Hm7khLakr1npl4v4dY72LNCHCIbaryUmtbdWQY6p4kDF2yzLhHOAJ2XJ5nljNuM2XMvaBvzllf/X+Z9n9R20Ypz0YuFe3EQIVTcHtFO9ITWEtxhyZBlFKehu66/QoDxZQIavPwh3JXeOhk7Sou4BjcAwQJqkdwj8dgxijLbIbWfwRCHdpERzVAPSHE8vABpKBeo5VXiwQSbMElilrOz1GFMhQBZcO48tlbWrvlJ1aKsDx2JXh1Jk4medcuL70dRDCp12ES2GFBUlakZpnSBjHD9tkElNkoVQxikUY+8LyHLCKoNrZzW7DkbCjsEKhVijkLsR9teoKugf/dJTQtOKKZab00AD4JBvesFoLGtFx9qvcMuDc1AnJC4W32WcfAlmAObn/LTk7uAPpAfgNyRhKcevW5yV9uEQIYg7EhUmCxnMEqSuxcnU+vDX7YhKirrVpIvQeZv8NeN8HPYMEzvcsqGdy88iwUgW2XosUoYXIBnLBCCxOpqfs0efNfut3P2nPP0OePL7DsXGg6Gsn6f7K+XoGjbVI3GG8s5NVizjKIowo25iFHO8AA7hE3XMy/BXwk4wDtz+8DYIDGc49esozJ8jWkCGAL0YntzsiqMAuooJHzFJrIwdOqItA8GlZOD3iZRUuFgPslpg/Joqy4sh5i0vPIK6N2xybVHY4iXiMeE4AfB3MmTocqE0S8kRsD1wAwloAKIlRKU60AWq5nNeyJC8vL5MUgjgIRKNTA+BgUqUnd0xZnnFXk48TZ6qcTvBNW9M2w2YQFkwEYic2bauBVlcvQPj87dQUPUic55or9sir3qJ1nPPcbYzNsFxJ2Uc+CfL3TMve+p1Z27sLERzJSgB+zTqLHQdiJoU4jbiihT9K7mJnpitKav32Et9G1++VuMFNE6E3iP4b2CgnbLO4Uil2MrchEQMpDBZlYOOLaFLTYH4xZ7/3a39nn/x82Xbse4NlRplwDDNhjDhVpaIH5fNtcpamwWIZjYK3AsK1yl4oN86I0hhjcU8h1qSmT8HxFM2TsGdPRuw3/9enwLpEf1JEBjeSGPqIjUOA9cZOnMMjNjGegKMBjgtBRjpwMSI4/FqS9CkybcE+VU5eN8A6BphLFvbUQfzNZPZaHqj4TDMLR4Y4yVcMdbowtwrSLoNcEAI+UpbiLBkkTZzUQuxOZ4BEJP0nCVGOpcitJAO9QvxqAQU2gZ7eYPv4uZ/7G1t44XvQzZfQ4+B2Q/Nwl6TN5kk1U5IwlDbanOI7QHYJjIh3kBjEfPDbSZ2QKn+1W6lYt+FpROLqWQI4mAPiQx9+omTHXnje7rpz2B54y147sk+bJAqr4qH5v85cLvJPuaiY2W58qrd++5nK1R7/FeeE/YS4kRtoqIojO7hoUBunUJ7V6oSl/d3HXrBf/OWP2eFb3mzbJhGHUBYbABK10HvaFGLZMXGPnSs8vpHLXPY5FRY2ahQwGkC/A5GIacNyiWmAaSmxVeXY7LTrW7iYo1OEUPEunjAE9qagN9qlu6l90aZOBfCE6HRV9LUmWSIK0BZUfAXsGr8WFoKYzDuruDk1AeBCWLBC61QRaesvwOkEFU+qEjHSNXAyOiS3xtGDWmwELcAj5DwTBEgb5a5MHY8kKVhZ8FsXF+GX+WXCvIAEBAApmdyBMQOuB+zF6PYpmzlDoZvtxwh+L4LNwsaBFTtMH/FRQgzZGxoN6nwUHwbvM8l7xraNq1ALj5NA+Q4bQV3y61Vu4RSWUPCC2mTXpLLEjJbQi5GoTs6mbPFTGfvvn/iI/egPvsXufyOuCwxYSZDKUyQNjKHmbCNruXN80Rl/1Aat340yk83c5hXbq3p3kksZeCYFuhrygrNswgUlOijaTDltzz4za3sOfg/15EiCrc+Q0U6IEqJWkszokaExO3bmaeD2NnP7wb8NTZXskefNdowhGg9jbyS/cKySsCePYQ6fLtkEfioZW6QwpV2GP+DEwLHJQFsqL2LB24WBpAza2RwZ9YipKmyCZbVeyzpRUDmOfk0WwQ4malnSxXkiGEUUjlUhGTkxgmUT4kjmILg4xKEEZuZRIVkt8HQqtQoir5JpleRMZgLO6giWRcHlC8lacboTExPgpSLiEwgfRy+kTAM6IYnVAOlmc0cgJDIP0MfTIB+3ahiWymDPUN+iXkK8rZNGliuxQeTs68+foujmfiNVE0sqYi0bw4sRsBTD9JnPFzDGkJLFuimWqEYFsNbk3h3cB4V5CjuwKcTxO4e7mFWMr4GUlSeM7fSskgK0aZ0PvO797PdcruSxK0aEvYO6pBvBUBGnloB26TRKvcKKSiU0KwK2R0d3AkFQ4L2FgYbEV1J+JkZvReZfsBKZ05kpHPtl2cWvXqvHx+zX//VDVjxJ9aAx7bp1GykCpTd0xuoTvGMoiWC9jbB7NNGLyMhi8Q2RrZ5F34NbkvYTJ49O1lGVaCvL4EF0RzIBxoz0p4DWae1wFkzVaaiTlCsEAhmLKwXCsSAckFlJfAZtDHj8DFxY8bXNRpFrIeInGhTNwfqJyClIyAQB76psJHG0sFKBAKdsCbDcGNg9ccZUyK9AiKM2PjJqFbikSgREEO8qK0A/kX4URdx0gSm4HuT+wDFhpfBddvZcwt79n78MGkLF5k5ArJFZOCWbqwv23ZwfLmB62Ewm2SyUUjRjxYWo7R2/DXEZACng7yPj50j2pbQcBjBqZrE7IIeySYbRq1Po13GXyt99BteKEHXdNdxR3ewg4tF3XuvlcN5nwamutQvcJd0/lGayXt/6voZjdXkFMU4+PGGE4BDMwl0o7YF4qpJYS4hQqmuPHwqxYaEK/AGZ1DX8RaHqOCZ5wQZ34Sy4g9VdX+8QAz4O6UJrt6APjEffqS/nA+qBY/Duqfc+d8AJZIuJg1+qOj58Mhtjt8VSylq0Bu6BCrUKG/j1YkJ+w2ASas2iiwG5R8JjB/EnKk4PFmkeLuKielQjgmqxFay/9dIEY5GZHGJI5G3bjojddGgUUYmcSrjeoREMOTHq78GlEizqOEgEgoOXYUXjbAo/h3UkqVUuiDrZJCV8doUVFYUxe2zmZpudm7cTp86QyiPLLQQHvoqo9cwyImgc1sCN5Jl70h7ZOJatXYTIwKPRqMaxLNZVfi7EedHnWLLU20C/DbFxJkAHiJTmcZ/oSe5AYsGT5FIs9+gf1zRjHdQNGa84273reWnxK+hadSM6LnWNYjfcUzclqWdzEjv18lz5nct5dQ+3+4qzuQm+sk4OoWwJ87VZp7uzWjCrT9syC3An6yVJKbU6ZdRCbPoxsvyHcSmVuWDYpdF1m7eS3fNfXcuqlaE2aO33f7/WUc8H3VNv89ai9y4ueFU44aDB3EjfDdqM1ht/LHIM7oCOSPXXWgfsGbh11HY5qI5OBAslC7pBulUYK24M40mrjS9uZMWOUq/i6O377dDOZ2xqahs6781wtu6eIE6nvcERlxYmCrPL6h/QlEHgRCq3apRSq0dKDC6vFptMDOTpDnBGbeAE8bEbtXHIzSRq5NgKUJN5e2H2sD315Fk78exZS7D5jQjqjgvWEXlbrJTFyClUhO1YdAkKYKlH5YYBNLgB118pJJwuvNU2NwMveyJcTwxZkwBWlfb1prm1spNY1uNwPKJhknvRuSgdhv5XrSIjVPZbaOkcFXbLdvPRlt37hnG7484dNj0FV+uibhClcgc61Grv2nRlBsWoIUuVRNwINSBc67dxaNvWdiqKFVcR4TLW7nC7J8f0h8CNV1O6dJkM3W3n9eqjsC/E5jJGl4ZNoJ9ut6eeaNun/v6MffkfFiigOYIasJcsdEqdtc9xztedtBImLUi6YSgEQnZS1sUtIuw+oMv/92VPhJo6j+C0iPu5YK84PmiaY5MsxNJR9AyJNidtceZxyqFFbf++SXvlG8/Y//C9oKZuw6+JS0DMTGFcjmnJlK+39OoHvhQsfIiwLYW6efJQRFWKRUyOuvTqoUZJTbhHQnCubrA6bHNVjHKdOyKVVVTSG70D++igP7gGEV/OiptuSldCjMx1bNs9TXvz63DsE6r23Jlj9uzzH7U/fy9WxgX4LIBJw2Pk5mEkWmyQw8k1R4f2UadChLjVNjMDL3siHMQJe4kyaHJPzasOxrPWysOFChOURHujfd8vpe0194DIBusRmJwWu3zswvJUnfUYuDMy8RNMyT/ng8xdiB4UofgOx9/Qx3A1O8LyrP2rau3asCSmOrrrIT6JsSI8nRtNzruaEDghpGFzorQlIRJ0z2lR0zA+RBA8vkdVrNL1VZH4lh2H7WZe3/qGGnUuEvaxj7Tt//nQM3biXNVy26hfn2vbC/NP2s7krrWxbH24vBl42ROhW7+rWnI/J9T3vYxl0BRvm562Aua4wze17J/8wKi96R78UCxwAfiGZPTAQpovwjk68+hbaQhWVIPzH7BjyiJYYhJOqHzIVSYn67AQ4QSCK+4m2HyviWSbUJcArNzYEDPTsg6tjlJuHrUIjnyRklqiwbXUd18TgFVEyOUjq8cdLg9irSriMn6VxsbXD+dO2DaQut/59ri97e1H7BOfNfvz9z1nz4FgvWcHeJ+CBdpqm5qBLSIcMH39IumAU9a+Ov2Vr9nP/Pw99vZ3jOE/F67n8yADSPvaZYWFhOXGK5Ssxm/WQeyjtaCysiAXlWGAOqW6GGVC2ZaXqUmBGHv2dNOOHytiNME6SRzoU8dVPUo+VMF/KEukq/91+SuGwTqZDIRjxXjJaqpScek09d9zVDfGLXHroRlicxMEC8RtbIziL8Md9xql1JVcDE3gEMU1xZ2dq0XEKWIm0Blfg9NNYzI30qqVF+xNb4jbG99w0D76oZb9lz99nHqhRMlstU3NwMueCAeJo5rRjRLiB//ra2ycLG5XhASuEQnvhAfB5SRUjsNdaqqCxDEWs/iUqg2XKdn18Gc69ug3TtpnH0m5uM4C7osIPsAEYETCemy4UtAtG83Mdq3xcK0OjnY56uRkj/BSUcx4jcpKsC0BXMkJXQE6f5F42wiOauVWfpKAoqgisHHW14EXVErEEA78Pbt22LapSXvTnaftyOGdtnsP4qogIJuq4yA2zm8YR1ul1BCO5V4YT+3v3gTf/MCDEfvHDx62B39iY0jdm1qlL/EfR3vcZN1bXRXN1gSxgHxBT5Rbb54E+77WVvv2xCd9L1+dW/DeeauOFV3f+fnwB4ZZEHo5ICc4iXyDXVsFuWbudxK9ui83HudDUud9wqR3b7yrb72izuBxcfP8Qh0i7UOzt2LNXLbYWMlOzWzHMVy0/ROfs/f+wTsMX75rbfxzYSHBIR2GAK0lIA2iKFk1sZuoFrNHvmL20Y8esy9/ZdZWKOcVjmKixK2RzlA3AcY5sprdIEdaCN9WArQAWBxphd2ZkTa31qTvcW+A+9FPFxrSpepxKxFkSHiiO1VfjSmMxDV6UDH51TYzU7aZmeNU/MW1UgZoOdOy2ynx/Toq7t5+GxbUHQAyU1swZyf4BT44ajzo3ppUPVL2hOI0w52E/e2f7EJXnLE/evcz1BC8nXJr8/jpsJxGqKyF/zcV6xqe1vWzaTwM9IJ1qD2DlzYt5evpObncT21CNAf0LIhLNiQv32/1tlgX3XO8dyp6MKXbmVPmhLSycJQ6IGCnqiF7sPYuDibo3YClJbu2tnbdH963Sm90bb3768+n7T3P9US/l8QJN8od1kb4EvhQWG7ZzjGKTM4SxEzA847pQ3Cyk/Yrv/oORzyNBsmxFMZ0BCh3AY7gCvUOaqUx0OLG7N3vPWVPPX3czs6W8cNN4iIYIx6bCBisnmnytJoVzz9xbSYrR0ZEEsd9C5S7r355xh76wnM2lO3Yvr2jtnfPhP3Uu45SibjDZxYaeY1R6lTUKgR5Q9wdOfYrI/bgd2yzuUrM3v2XJ2xq10EAv4/ZuZlTtnP09bhqzlybG7uBrhpIhB6nG0TBN9B9XvZQ0zHSk4iVTI+oClPbluefsJ/6mbvsttthVIqthqO1WohsECBhyzCjIXvmuNn7/+K0feRDT9nQjn3oUoS3dcYx7yeBU1CdQ2I8EfsqlRkEV1b3NWyVEmW4yc7ICCGATaIGMnYRC+6Tz4SJsgnZX7/vU/aD73wtZasjdtcdMWfLTZBJUSVSJplBj+SLJIHtb3vbOOfH7PNfWrD0ZMRGCBCvER631YJnYI3bBp3qEaPevc9Bv3kpHE8R6jS/dAqIBOoixlM2Plyw73owhA4HehfRzi1C6pSGJdybFape/ulfzNiP//gn7M/e96hNHTpAygxhXTuHbdfBHcD2U2IlT5oR4lBcumOF7Ptr3NKuIi7QElSJqrUWXVLs0E7Sy4DEaIPvM37wZnvvB5+yX/1Xn7Hf/N1vsNHA/Xkl5fUni0NejRKbSQKx710/TMxs5Jw18yAHRKfp8/Q1vrsb4/KBRNhLdL3E93IhxirB5CqBli8CTExJsx9755vhBnUbxwJZB7eyKncBgc6n5sbt3/ybT9p7/vMTNjR2h93yyjstTxxjZjRmS+WzdnaB6lAYORJpQsIIAq+VGxC1fwbFi7GEOmSuSMqRvl0hLneBwOflwixRMoS7RevWiBRt14EDQIkctYcfidkD3/KX9vFPgDIgI06E+oaNOcsmppiTNtnqZt/+bXusTZrX0hzl0LJb/ouNPMNAIvQ66eWEG+n4pXJOHPiEeJJ0JZJ2w8if33wfxiBqGkQIZI6RR5cZnrFTp8z+5I/m7fjTt1gsBfBQ5zlwU4/BYYbAmpmmTjwuCmUqELydoHpJKFpwcaXhOI7Ca9wKZeUbEs5GStAo+DUTwwfIl7yJlKT9Vs/vwcCUsyee/ALuFHRiMHEyqQftD//PY/aB/0ZpMZyhHWd4UQgc8wNG0P33TUGYFG6lAE/bhdRttaAZ2DARqqOXo0gaB7ZCGfIq8pkFQk+pPEMZfHfFFBV04osAACAASURBVBqgPGo1gI7MvvKlJZubg0ditUum27gBMjYS32Urc6QuYZlL4xRsYvyoKmKGxMJUehi3gn9WfdDDuxLHR0bAvVEGPikXKxR9LBcLFK/CvQIcRBspIE0x1cM794NotgR8BnUds1gXE9vtfR/8qh0/R4BddNL5Gcmrx2iTsil8//EMgQkTlGMj33CrBc9AIBH66X9+x4IvfWOcUUA0E+RGo6kUB4qzaXcHnk+FZKUQ1Si9lgeuYha8lwxO8BTIAI1SijLYMD9ArCZIRUpGQQ5vkMbEL6IkwIYoEd0oExhd6GblX8uZEJhWC3dHlLA1oQfE4zj/E6cQJY9TWfgk6VggqmEdHUkecKlSYcLgCgQk5PndCy+gFlK6QK6ESkXgTtQXxNibGyuSNHuSHMUd1/LWbphrX4A7OmjUkYsSoi48q5cQB/lKgghVgEDCNvW8Wa73VR+RfEWeP0/vXT9h168oX43CurT/yoXjST7uM69uABf0grGhTV5fjQIziSzBzpKQgPtT2Sf54+KRMXQ0+kQvirGAOmQHdDC4JMjsX6CIZxqEtBQGlVb7USAeSHCFlNKIpx0Wp2IwwUAjQmUUWAiwSMMghFMZt0Wdvw5wEjXwYShUjTsCWA5q+ymvziDIMOxU13OtQulqfdYceD4uevY+txzuf8+xPr9mv5+s2+n5f0Oq0eDTEuDOlErkQ4J+LgiMJCJzhTSmkHy0OPvPtlYstws80gbiKPF40TQVQU4tY6hq2G50QOcHhNPHQEiQ90z1G2vLBy2UVmAA96b4t77WuybCBLC3l0ap10hRUizGHfJHBV7VQNeOUr8xFKJfHqr8bS0CcJFF3NzoO+UjhsWG/RpBsiq2Kj+qztQYNSSNSsH0QevTr2sdW/ODr+NH9PJpB9GG13egiyJoEL3HdUP9roxL+f3lnBs0iSrDrDAySld0G7PfUHykMvqpf1FpA3YL3IMqjoL84uD0JVqFO4J8QJwiR9CvZej76K3kt9/cttMzZzBmsPs3AMwlu7zQPmPp9p7ugyZSRvQTZsGGVVVKFU4lznZgmbSuceQ88Xnf9V/7Uuc4aH6aJPpmQTQIAwnRIiSuTv6j29ywBCcwvLTYtebmTzgXTYq8wvyJUds5cqfdd98MBhvptN7E9o90Y3+vVE9aLomVGFybOtWMywKvcs9MBHK+SOjGersxzwoUR4NuSw950INe7/ug/i7neO/1+68bAapQzSVQ42yuKSwSDlVDxJRO1wH/0yF2Kx2IKJUoWe9yRUj0TCgSO6A1a+Mue/xP3vOP6OOzRNMUAP8ddyXdJkZ3wDlIik0VHWxgtD0BAY45Iozj1E/HgOdY3UG9cfe/e5fvv8eAYW38cOscs7AEf5E4KYstFYuw2rZAHJ+fawClCDRgbpflQoAgn4VjVh+xt7511P7ZT9wCCGJ3A9n4xQac2cmxEVE1uA7+DdWZMREREcObuJXY1sugXTFOqEXiiQmat2vDEc8/NW8xN6qCTFe4G4hjCk4mFCxDMp1gA4vFWYwmR+CMKiwDBCGSm8Lj4jmwYcrUowdlOkxWul+T0aWFuBMnrO19H3iH/ca//Ix94XNP2dSOW6mruGypcUQ4wtjicWA5EmW3sCQeNREzGwRlx6hE5bV+QnP3sLoSvbn15tU7N2ieg46nEkcQ3esQATgyhNmFGWcCkVOlxWONmp18bgQrMERCSfJX3DFsP/vT99rR/dwDEkMksoeNzX+j6r2nQfM4HLsF7NKzOPZRARAOeDroz+BygGHfbgu9e++gn72kvts0EfYuBo8QNUMbXSSbnU2P2HoXcvfaXV0knQYRDOJSwLPczIIvnFuA+Gye7HEQw8AeCcUBllLBdAKwC1g6c+mdTj+KZboGFt8xIkuotBsahk2ma/Zbv3WfffFLRfvt336/Hdx3FHfFG1ncc4hax6zYPCEll2sOc/YOxjCBzom7YlWa0LunA6/N36pK583tpc6rV7dxvXuYb7zgoBmT6IYJjEaVcp2k5Ab3T1wrZaXH03lwPU/aD/zwPvvme49gJS1adSVtY1kNTBExm1tChbknMFaddVE7C/PbbMcIFmNnbiVeeDV7Y72xv1S+39wM9sxC7yIJ2n2vxuR1F+fFnLCMg72Di6E7Jvx00MuBqSH7o3/3XTbORi7IfTnjK5UQboYF+5u/fgLOiUUQdDNMPgp79m01dL9EGAtFC/2FviZQI1//2pj9/cd/GMf9F+y9H/iC0zejGBiS6ItRsnnbJPPWMELUG2cBIOri4HsE6BGZLuo+838v97tUTtjb36AbyWVlmIITFsFyZfE3hRDONXMguY2DBvBj/2zY7nr1zQ7vppSftWkAjF2qk5Ienb3XvwVd/zd+5ajt2HmUnEygoiYgfuivVSeKh7CcRqkbaO1/hRv/6BUjQk1FLyHq7xeDGIMecnZI/jyJTIRmUbs8gW8ukly2u28D4W2YOnWYY8in4N+MnTkOcVTINE8SdY+eKCiIoKashVIF+EGMGwryr63UbJzaGi2spz/xQ6+zd/0QiGfYfj7+tzP2pS+cA2SJKkxRqimNUWeD4OlC/nzomubLm7Pzn7s69yBCDBqbjrtKRj6tTL6iKk1FhfS2rWG33p2C6CbtVa/cBfSh0NLOMnNpB+U4kpVLhUIrjTOQ3xDShXIJ/fv3ubQ7tHcib/t3YunePsJ1yHKwyW7qF3MZU4LDyyD8dNNE6BHeoMn2Ozbo/Mv9rp97dP/uiqMV4M5bFBKNYIxxcZK0dh0HOg5n6zyP/eWIM1mn2NRTLKwQ8Z9Jgo8VC1oCdCkrGHqfVicwG2+G41gtok/kBlFqepsUJCUZJTEG3XVL2+66fRTdc8rOLYbtkUfa9g+fW7QnHlu0WYnEEr2wSEp01MuDZNQ7xnV39d65vJR5DSLC7/z+43b44B675fABELThgNyuSyckZayD2yIUh/BaVfyfYskpMulxu4DliSwN6DF1QsA03UxLU6hGZQ2k+pbArsng/KfQBfdLaTdXLacHWmAzF7qOfxt19fZovTtw73iD/FCb9SNetEgk97A1qNyIrt0huTWCn05QDPIVKY/O03NU5x5LCoPHOOI2ZP0KH5xq17F8R8koF/5CJDTGX3nwMktgmm7jjCPdDbzBO6KoagHKKtfCf9hUrTwc0FEsdakoKUoS0eiv40BelNpK03rkP31O2/PwggN2WrrkcAbOIQf3XnyOXe7rmLAzXlSADqQaECXWtr85Zw9+E6ElWEvnKFa5sty00yfL1E+o4QCv2dlTgCnNh4iuCdkZlxHcVZMknbZxreiR4eZ0DWMmw9EfHORiXXhEPJgYn/T5tokQJdSytmsXddt3Um1wOmTTvKbANRXEYhXuwxbAUpcHVF4vYlu5gLA9Y3FqO8ABw5ROCwF1uIg4mhgGsZuQva/8vdwyddsdQIT94rPG3LtpJmINysuNUZ2qQW35fRwlHZoqUVHKWovJPoMXJDw9j5hMEZfakKuXMTo6ZUUC4yUyy5/o10I8OwnN2mg1S87OtZpnGiET2uUlev7ZVUlEf290o2uvWrc1Bq+f3s9r9T17zus+q+6oO6zfizjhRi/ud+PrHbuafa93zQ9+4Jz9wNsmbGLbMJa/YVsATTpOzGMCIolFcBSTlSl4edVNAE+akCzKjTXnHJZLBGwVqwfk+7V32Qc/9LR94jMR+/4fOmj3UGVYQQblJlEnsMhOE0c+el9Iup+It7tnoBfOAVVPlkL6Zl5m+8i0eO3rREZ64Zh2uQodKy0mWBCAPzmIC8FbqMZgt8imCDEJCxe0fQww3jg5jQo4kJXXXUccLbrMQxaUhWCa9d4lNG8zyba71l8VsNF149S4EMyFoh86FLfoUOuvsBKh4KnC9sJ2DKPxn/ynE/b5D5+0X/zVvbZ7x+aC0MugwY0B38/ewmbH82De45R6k3OdMhn22U8T6keMQy6DlAIQszZKzYXgPC4u0LneKri+v18jwssVd4Juz9v1encJ/aZ3NwzqYzPH/8v7P0YBk4Q9+O0HLcd6Sw7hF6TDfAvOWFywIcKxFJRSYsdvhCZsahsm+/o2ioASakaqThjwXL/WZqWnM7vtC59/wr70tf/XHnxgl73zf7zLdu7fQ3KPxKvVKdaqd3XyRAb8154kIGDS6Y5OHF0lE0c9fGYpussOUfLLNURqZwjRu8IwnNGGdyetaXsXhQsIWGSs1n1vNIgN5Rz12mX/3Cwlx5vUslBptESNSckoGL27O3SwVIUQgztYkyXGl0nl6lAZ9JOfblAN9xF7/MQi1aUOk7x7t41M6+Kb0wnPMY5URxIE+52y6HXvGIcW5ov2+GNPgYEKNyZkMIS/t4M7KOJcF3LtUKnKFcsJMp25G7+u2xoMfj8LXiOSVVa92bvwiHw9otxs/+v9fiz3E/aBvyrY//0fv+RqLSRi+L0whysELgEXqVYfcrUVUoDEaF0vL5VtYpoHG6eeQhLKrO9dr2v3fQeO1lSRFfTI9OjN9snPnLQPf+Aj9srXxTHr329Hb6OkGJE5LCMIuls0QKhmzZb0IMCeyMrvdsS/cDZxt/OhTvQveVOtS0Xdz+usOyemSpRcFat0slDfXL9I3C1F6wifBgttNAw8v45pj+C+SyWF1AFKTI0GiW0KapiZW7K/+hAJvg8t2NI8lbMih8iLPAgE4iJ/PwmByqi0uVogv/LzCj+cI/cwz7gQgSGuDlWiwujipdK0xcarZG5MYVRDFcGXKzArB3ECdmoFg1jcOfhv7HYRJ7zSRNLbXz+3fTGmrpH+gtUInk6MU8hl94QlMbmVKGpZJpuhQzH1BIqRfIhtlAZFy6hybYr6EZ0SMiJZD67yrk9jT0YkpFR2awb/WdlGyTJIhffaY48fs1/4uS9ZjMpIt+Lk/qb7Juw1r83Ynj3kGsgAIyc9RNMB90RoMfqPgaB7CX30PJV10FXVHOMTw3Ofz0cpnZcwROTQkaOs863tSqNxG4iZXToWZL7OUVC6KgmfYRjc78gkEBxmX/202Rc+u2CPPrII4hugUPsouVaiEAxjqoIfE0WHC1N9KoMIqdrzm23R8SJFXcDjof5hjBzNEJJDE/jFFJkqWbJNKhiCJNZXyt20L2WgyI4QcZNx4b1udizX6veOE3oPsv+zBtUvRl7uQHs54ZXqcyNjqayMEDBNcDC5gHWg6auk7KhybXYUroRoA3KRM/TIuNFurkB3ZVf/zy1oxKOgiJl2lbLUqJLSV1IA4raIsqkS7Jygcm4miShXPkl9+Za9+4/z9u7/C8c3tf2OHI3ZK+8espuOZCn+gt8NmhPtyHigZSUbkOxT4mzDERmNVp+R0/L50lGTRwCr+6jEVB32EJKcEQtGnj7PKfQLKrtRpJTCKYtVIoYq9qUvHrRnnj4HnMXnbYWNKUE1pSSZIImxnO3fnqIKMMHaJCYP4cwvE31UJTG5WmAAtWHq02Nh3qQ4WqBKsKA1RhNYmQG7coZAOF6FisDz8ytcF3EU8UDFcBR9H2IOWlSICqEGJLCeXmDv0LTcgM09wX7iu1pE0kuIuu7Vuk7vc0jiFqAaIAucbHZhdqoSsICNML+XaqCCpU6Ajk3ANshncqp3MHrIL5ZNbWcRJ3Hmn/F9rF5NCclwUXIGOy2ImKyJNuW0F1eWCXoD/h6DSVJluMhoKHP9L3+tbV98SLpmkUyNh0gZStiOHTnbd4DX/qzt3EWkCgU3U+mwTQFPr4UXEadGXJR+51VlkvWTyLKutZS1K1xShX+p9qBeMuIcm1+whcWSnT5RsJMnS7ZwLkTUC/dF1kKb+7MY4WnOqHPUJpJYKhm/MipaZE80gEgMJQl2EDET21mG+KQfJoi3FaJbC8CnzXKjZChN9gSYNeDR8IS4N6o9xYVCxzOIVZmveVwhKkTT3WzaKPAyQHVFb60h38dzQxy8SBzVqHuJcrN34deXjl3tFo0fJ2wMnxM7Z4yds4FfStkCeqYZdvxk83YWWNcSGYphDaQ0tAwcrUiePMGzlk36+wktcgYgXxYMRSjjRP8XyxAK4V85/i6vwBGjRKS0cHADFxHCGhtRYjCILA2CuJuNkG07iDWVeVhi5198pGIPfQ0EMwwmYoVyH+VBNxMRyhIoPVaEJy7dtX4CeliHi/P77qKUzNrFIw27rA3cEzCQNlAUbao0tbXRoL+GklhTc8IvRfRl/NIT25j66yiCCmIfAsipw4bRgG3GSU6u4Nvs8H2SxOYwOYcldOt2Y5kNTEaZzeVE5rJFbjXPGGoufUxEWGcTqFTIaMHwooKfItAIeUeyCkuvVjXnEsVAq9RiS6VvfD8isJuDtxKPQDqSi2i95/V+3qwfUVeX78ZJ9x5N8u4WGe/VJpV5yS/rhE9TDnoHi+I4Ab8HKN38nGXTUzyYtX1kMD0Tp6lSYSp2pKZKwLpOB5sLFedJcZqBaNLkyx2DW2GwaOyDSPOImHM2mdqN+EYyLkQgl4Xu+/wQJcDCodo7OLaA/2oe2AuMPhCY4CtaVBTOtKlVT1C0xMeISi+RHiWXpPQ/QBGdGNpTHg8C04mqGQEa2+pzmVwN4D4/Ob23CUGlezcy3Zyel17daJ/u02N+6a+rQa2KtvJ9ShqnXJvXRNxqNbc58iLGrw1hpvB7hMXd2RIqoIfHMxnibpEvcLt4V9dwPQHZ+Z41XwpQJ/i7hb+hi7/ZJXy5S7yNIw+xJ6kK3CTIXZtFFONRvU2dR/Fa9NgG+qGqG3uBP+q6qHLhHI+jm8ZSAL9WVIH4JMVjqdB787KtnCPrIw7ERjVuFfmBA1q/hNbLHPrpw/t77b237x6mskY/PccH0ZDqLQas4IDRvwiHtTuKCIpkr6dIB2rVU4iKONarFDEh/ywW98/3C6v8kE9bWlxgB94LJxtCFKvwgFeIrCGTIk5uG/Xduxn0Ph1sHfKdAS3G3kXtndz9HloN4QwkQiYsg4+sx+xMIXaqMITvPgfonEuzGNxSOScJbJ8C4Y2qxiL6QmEZp/60LdwAWFPXPRFK3KpHBJwLaBLoyfW2ilu+gJ6levBAD571FxdbKovk0/Yfyti501Ug/FTmueKCt8PoKRE4UomUmpQrn7TVLncG+rmK4war7FPHKmdwlSDyNhE9XZgeL30O4apoyVcp0dyn5YbO8YwQpSmrXkd/7BAoL3G1UW7Z/PJZRJ/rPzHYf4X63PyLdSjm4CfywOqRQgrYkIqYjE3O2bc9eIfdfvSgTe/umq7XG0+7z2Tff94XPxe29/ynp9BzWpYej+K3lpEGMznOui0u2D9bl/63Cz2UxbaviQB17Hd+L2Vj4wJQrq3qvhKRSYBWojUCNFU5+n96wd+VyiutumD27HNp+28ff8JKS3txOwFJOTVmK2c5cAO0654Ia+UEJnKMBBgOQmESYUk+/YF/eti++9sOGlZ0dCf/qkD4dH2bdMU/wwTeInBbjzyqXBpKXgvcKRSQsOrb8dZBNwOe2KnP4oJOr5ZOviqmvmL7lE1vQwdGL191ZDrRMqAEytrsopriMzTqQU5ZBGDm9/1XfLZE4ShEL4W+WEf3vd7bqip+/Q6zSUxjmmiWSkXAuWErrpTsrf/4NpCwAR5SWTAUb78XNjaIa/2Xy5XBWppLjkGITXyJJNnKrkBMKXEt1+/E3CAj63LC7k7oEaGG7nHCDoDDxLXzhYhF1jOy+ym44/yPysAmftXvVcw/TPGcpg0lGvbd370f0iMSioI1iwtUuaJozY3QrntOOERmQqPzPHGMOZTuumH1Jx5TIZNCRyNAWgU2fdogo0Dv6S0iXTr4ntJY6FYUQeJ2aRXKFCcMYKM+19061J2B7vxfDADmccIqxjWF6ancuLm0MQjP2dIgJ30lE7JPmxreB7FiRW0uAswVsnNn52yMUuUhGeRIvTIieK/35r+Cr4PRg25iC0unbdf2t1i9FLWR3B4XVZ/EUhomSmU102fdkTYHQO71npzL8bCgPKUI6eHLca2Qfjm+00rD32KG687tRg6I2Fa9Le70rpm+u7npWBniqzLlDiHEOVHgiCJIfeL7IFEtUScAHbpNAk3ZImA+iS9YGRbpbA6jHabRbhy86+96bWsB3OsN0PNt9HKUQdxlkA9EfQb5Ede7rvd9q33MRkL3WmFJWddEgTQV5SLppQsLoewjS82zcSbt7NmsDRFJJcGmTI2E4ZiCi/0f48mZHZbe95SdPPdJGx2maEsDHxZxjA6Mify1MFAU8nFF2FmbqkGogbGGQt1V49QYXGikRWGZa+22ReIsOziyb5u+CYDcZ6zQAmm7ZxWu99l1O8DPpO+9Nui3LubUp639Zp2+PY1pUN/qNsFmlMRft7wAJk6iaWPpKugBZufyz2JNPsgZ8p9eOACPy+ldVmavydLpWTtl9Eoxp1TcxqdKzij1wbsJJ12+4NzTuBqaiJZG/GuNsuMy1uhr0hpt3zT/EBJoiVdRUjwseCheI1QhL2IpBR9oYd5qGfyLJTituGFEMbjZbj4h9TXanSzPk4Wkh6e2eg+az965IMaqe3j1JnuPuZ/13bz3d//3OnfQ89V51z0ndDPg1yTBRCbI55u1H33754jsnwGE6E4c8EDSA2obTfKgfNr4TU079vxp273rJnZQyp8BZJQkAiYOF3SLIkCvl+EvmSQViMWyXJ2x7Xt2EU0Stseefsz2TrEjdLONfUZwfR+KYPI/N3fGDhy41U7OPGnHz4K6duhb8Nsu4bgXSVxs+byUO/qm733KLWQPTUC/7SXiUepfpLKniebJWJkE7QZYPplQ0n7vf7nZ7r6ZOh8EA9zo7YYnwlJnDn0C6CEqzbYzMaAGd1kmDv4JwdkNwJuiEQUZr99Wlo7ZxPhOGyNbu0xJXcVlKnuoRsiWsgwSELNf0zJsuMx7dFQ4xUL+SZz/wOEPJYlNpSPwZG7kFmkTHAHmxWNPfg6w3ylL1Cfs0Ueft/HREeQS5S+er/57Ofc5eqALjuwZcDxu4XGS8iKhdGnwZxITpGURXUogUIWCM7URYlon4GR6ADd4u+GJME3Gt2xqEXLMhrIrNjVVt6XFsxjWTpEOo/hMYCR82ujIdmd5XVzMO9Qx5bN1JYw2YhgB3VpnPi2EdTZHOtTcGa6997CVO/P0dcb27zhqyzMSY31+fAMcKmItTg9HbWxi2ubPVQgs30ZBnDE7feYham8oK39zRJiuI1bSeq2o+ltE6F7bIVIgOOolQtmInsqClt4uY8W2MnNNLcUAXNgbYIpvfHG0TS5ainw+VRLKnymDlUlGQIjYwSS6GO6NFmkxfk3pOw4mAf1FIpE+V6tkEhC1kQI/RUATfi2MvnLgwJhNDBFovNS2qT2ACVcxESwC/EuKjqzsN3JTwLZQWiKdbZR5I9kWTtQoF23/7owdPbKql2/iBkOklzm9yM09+ZS9OhbqbqGwwPcEv1fhhgSRS2dvl9AfEU9ziKWB+sImxvZi/dTfavFijWIT14kkKRpiGGFyRZueBLoeOMNUnMIiGEdKK3Nul/F7KZhYtfmSyaQjQGW9O8h6wtUUrxrUBMgwQbzAj/7Ym7GmztvTjzxs6TCQEqQwtQM2gKC+r4vjEQVHZ8mkV0A2wMkzX4MTHrd/8ZP32DYFNmyy5Sm+o9cKGSZ6FUi07n1FOiAcAA6ciM9YJjFHSBqxvjFqO7blJ74CMPybHP+V+PkNLiwxBfUpQJqw1s1jPSVOsIzpjqw9rNwNSw+BKM2O6ddaxKKqrFeDZF4RoNCoU6TyxFh4wikN8lF0yhkse2b/5G1pK1TH7f0feIa+aoiyIw4SsOvz8hvB9X2sohzFfMUO7t9lJ0992nYfeM5++X/6cbvrZt0asIhkjWymRcD1UWuR++jMPKtiaFcqwTgGpGSjrrQwslPIlQyRkB0HmiNFvqcT9Z2T/8ZuNz4RKkMIvSyURjPMVKiEtGhDlCprUxm3VoGr5XBf+LQ45c6UwiPRM0FqTJVE1fwyeJpkUgjnJIgIQ3IIR0qkSBXtnT92xF756iP2r3/jy3bm5Kxt34W+Sa7cjdzSuQkc4CQon30YNO5X2bvefi8JYKQXAQtJZP2m/XCTiRXnApL4L9iKrluDNCYcwICA2FJ1v6VzZN5PkA+ZJIeQcMI2KkQD31SHUnRUS7vhW1Q5X17rlce9z6014MTB9+qdN8gHol94x/vfvd7aRWqcd57BBD1hUVVDwtsjPYoS8VZNfNVeyFdtbBhkLeojDJPVvVJ/CD3hASOAhkcEYhiCH6U7gaTYBkbKB4GPuMNOnliyyR0TttxYsNSCv+FgIvM0AcCvs4l9i1aon2Gn3cM4akA/lDBGUNsQTupmiIDGQT7ParRosRalxfBDpUIVe80r83DDO+3vP9KxP/y3X2GxUOchAbckAF120qbiVOHSnRhWP2AFY9SuVyKrknXxTBLrWGc+uHmXyBsml1Jzsmq2V1CBC4g+nx6UpN/u3Hc1C7kDOx5SFLpcCiCkBtdURroigEIUwnFX4u9Wm80LbFVdryN/GStaUB8hLL118FeVnX8AdfmHfzRt3/ndU1QeRgdUSFGYjYWghlIJdwHlxJ2rUk55huDQ5FwxQA1E41U+ILqc+9xdDxEsziK4arVuy9SNDMPS5BeMxUi6hhhbxO5mMuSAIuKUOqdsCAttqbJoLaKlciSEVgvP2FIRwxeXTbhIG1ASMBBVGMpE/Akrn91ndfzGFkW6WTnBb1/BzLLJyl9ICXNM5jyXiI2SnTMouNxN+Gpbc8Cs+ln7/bL99Qcv0GnpY72/176n3xedE+ph9A6sGZkj4l34IiRnKg+Vh+FKUuO8vf8N99t9d+WIF60BwY44wtosrtxu004fZ0Ip69VFu520Nx1N2rv/7XfZ5LadwEpQdTaFtkfNuw5o237tTPH1+JyeRfQkvpQiKCsFULTBJJ2e3smigQgDnOFJxScyi5U6aTPUbU/Gtjlopu/4drO33HevferzxtpIpAAAIABJREFUZp/+7NeBRPyarRSpdJ+ZJkicVBu4iIQ5pVA5BEPEsLbitIDpFzkJdlAEUSlrhfeIaUyO5k9JunqvIsZ5bW1eezT9SuKEW/xyVwoyUAjjcg93SKAVG2sAOCOAqzRI2wrfq1RmKQBasDe8cbfd+8Y9dschbo/FPAyB6PlUSRFKDtMZUgL7xqbbb/3zrI2MgAlLsHxc0N80JfDG0MmbBO1XQf8WPVWRWJLxHOlsESzRIbv3dvI+VZqtvoeTEYdwwGfwKf7WL92DmDpGqQMNsWiLjT22iwIhIdASOmwOsvtomUnbL1R0B9denH3RiLCX+C74HEaELEZJpiX/XSFGmhceSCS0aLcfJuKiBREu1ABmQjR06xGYPbGUOkNvEREjGOlW1Iao//CWb96pE7Si2VFrZF2z0MjS9mtfOVWzucVnbTIByloCcCZBzVCvr4mPsLhCVjnc16/hELEmkBZpdBS1UmnZEXEUcKlhRNpv+eY6SGs3A6V4hz37TNM+/+nj9sXPn7QFSlBnCBpXWWkZh4RP4+oksrjblLutN0jiIUJnZKp7fXHA1io31ue2lx3g4CwgSuZNYrUqRAk6UJ/1faEwRjQPoMDk5ilzv8PCbgLnocIvdGhpnN/tCEEGO8/Ymx/Ybm980y22e7sic2UT5T5cOF+BT8/jR52yDGgG1pyyAsUpUlk5h/z9qH5zp2NH99RsNwh0EQwyrtyyqtEIVVsYqqIYNjZDcmjUgEMUNqrEz703MSY4twCntII1RjhdmwD81756DJ2cr7AihWIVwkpV/JT1AGpb1IOP9Ko9kSYH5FXQEK/qcdHCVSdCT0zVgugnRN1divw99G04gv7ioaresjIY6po0oWOD9jUldGysZDzw7pClqykcSfAK2skArE2BV+H2OGVM8PzYVZ26EPaPpO9EzwK0JCIaJvJ+Ht9XAn8hzmAys7OCYl+FDFRXg1oY6IwUEO7F2mmso6RdZREftXDAyZTXPwGYkoyI6mrnPVF742sPskcctFOnKvb8Cy/Yw1970GZnl/l8Bt/bAoDEgr1AtAV2McumUDo91yUyERGUFYU79tariMO9NQdKRm7DQlqCoQBktIGRqYPvVPAJNfBtam04PItyAtCZQ0enqD2xm2pIAEsdOUZc7qsIShDUIkPnWbSRCuJK45JIAneuFsCXGdljmREVuiHDQa4B4nbz2J3Gc9oRL7+1tVGmVeeJoHn8fsqC6ECI2gS4kLYn7gdxGlG6A2E2tMmkkRZU/DW+2+oOdlGpSwBFYd1OUvKgpY0c+gyH2VRdyBr1LbQX61y4esse548DEKt8lNcet/SqE6H3eDwC7CVKHVtcXGTxqwCLOBCPwgGfUOFIs8ZmSPVmIjb4CvCfCFny5YYc6ogqWiyafwcGi+4EDJmCvYXjEoebqLqCjgcZz+Sg10u6iDiMFrospG0Q2PTuQJ59WgcUt698eQ5Es6jd98AEBKKTZ1koED8bSa1zGjEKndAtcRYbXDuMjnRgZ8oO4NB/8xuBY0BbabUPwv0OQYTyMZZtdi5vK/m8zZxQWTLKeKp8GUEFejlkMv52hgzE8iixk/KVZrJAOWYneE+wMcjNErZtuxNUf4rYJJv+KBsBhl8HCCx9WhkGrfY+d3ek4GFZph5EgpFioHJimvREAJaSw/wY5gQzcqTx9a9X7KMf+YTddfdr7Dvv99/kXOd+rTnd5W7S7VrsxGKsknikjPFOCQq4JLUTeeniKk6q+ABt3LKOCgNJEkKaKKk4fkQA4gCk4reKOWxr4fBSfxq49GHWUzI6Rfdg0Nb+//bONEay67rvp/au3runp2cXZyiKHC6iaFKkrGgxFUaQEAWBo82LFkcIYyMyIsCBYRhGhARZ/SVIECSyEwT64MQfFCmQHEGwIonaKMoRQ5GWSA4XcZu1Z6bX6aX2Jb//ffWqX795VTXD6nX4LtlTVW+579777rnn3LP8jzjhuW6t2/Jz28YJ/b1KFCccyh2wV38xZy+8iGhyqxCpF6yUxOiOm1IB/M4RQJ5gbsj7EjsBo5VDsDYNegOtFU9JPVzUkfO+Zy0ViBOXuWNkRepW8ukTTPyXbIBkmOOTEgXl6gYsO3iXSwvsjzD+dytN2nvu9Kj98T973r4FwO9nfi9jb7lZGYZmLVsbwlSBiKz5DItRUHIKMaoOV5Ijswg+Q2rtjHi35hbXjeB6d2R8wN56QhOEw9jOvPEjYgTktauL+uwXzTQtZ/rUn/5Vohc9X4HLKF6QMpShys1yOLZSACThDrk8nDIvwmSBK5PCuoCyifPJySVET5QlODyfPWv23794CZH6LIqlZbv7HRrg/krWLjiwLImiKefiR7sdAarVcL08L9l9FwXSzgF57Ddw/mY+gGpnaMFN+1v3mhuWq8GehVGqcSBvhaUlzVCH5oG6TD8qOHI/AzM89TSLzM4zwq0XRzU0YeJrKxA4lwHg5/KFmn35f5y2j3/qsN18Ytwp1rRxFs6IwNSkmBJ9VSsZuBPnGE8fOkbToAR3cQyI7ohGS1yb5YD2Rb32LIsXjaQmd8EiZphoGPhX80Crs6fKondFS6o6u5UkGXcHxvC6Icj42489ZY88sWzve2jKPvmJe+yuk0wFXnwDdpzWpo1ZgFepA/l1HJPG11nqleNQGruUxD9NQIrb93GBRHC3kl9LYbI2+fM0qE4Ypw/6l8mMCJlSmJbq4hQwom4tGxxTAK3Yz35OaRfIJQTIJnKYAJjZp69k7PFHc/blL71gF2YXyGE/aiOHSKyzgKIEjyDHWvoo9bG8LaGVTSIqipOJkFSjTBTqQQ3cH/g8TJmcH6S202IisbKGAotRZb9LXzikwwPs3yvDLKBuMoBRA/dU3Iv6pENKmH6F7s4slex7P/1ru4TPcbpPyMY+ut6+tfsM24wntOroRIjykM+mbrKvf+WMffsbL9jCbMGGsydteW2BifCqFUCQlipb+RwU45eGGvP4D9aZRXoh6EFZwRlsztWY7IpqUCq1CiBNgmnPsWfrVo4fOkug8H02PlRDbb8CQhfhTIg4q7yt4VFpV7vdrSnDykz4TBFN3fiBE6zck/bDx87ZI9/8Joqmffabn8ja/W+/w+6+B1cr9qku2xPQ+ikhSTNF0kmvfWq3xOcK2kCZJ6RIcRMy4HXjL17oRduN8oEMRWhefnsRspd2xl0EoLEul2lES5uX7IWpiZip/Zc1ECc5r8VC9CmE7vPnyDT83UX74fd+bi++MoR4e5y9GMoa8lSsYT8aHpggsQ4RJ3it9MtK/vZvzLFYzjlJQaYaKaPqNGZoUCYKRjf1GmkFAHCGM49gy5XSbK0ETqlAv2rsv3MvoElFuYQCjluBQSR6xsE5DlAfmld8eQvFFRYPPH7qU9iBibwYOm9FuOp4/t20n1V4B8tV4qi/X1Ob2ns3T6pxzQxyMP/7tdoRw/306y+usWnGw2VovybWoO0Hbj2RmOebynE9NHxr6zfiCEUinVfC64mnFQ1jDLUncqveRvOEDU8vILmwqiYOsVn3TBp5orTrFVTbsGEXYxbRChFDln1MgheaSh12Nr4sC8ZIFj/Ho4vYGgftv32tal/40qM2Nlqxe+7eb+951032tjv32dEjCRQlVNoaXzVHHFIxdh53EReGG9Y8tDCdd9J2qCF4zLqDCVZ14jj0jUHhr8091R84IeKvkMzYPTsOIkWILrmIBHrmtNlTTy3aU3+9YC++uobtDu4B50xmTlr+6JKlasDjs9g0yCJVSi0y2ectsXoY+53feA1OcGnw5o9beHkBzkYpDW7rqiagTurrEKLm8KDfId/zxpNpPKgL6kkiqqpMkLDUZZ1KIEzKj1T3SQl1zDuvM4G54n0VlweYuTWbdGF+bEH/4vj9Zj4l/Xh9cNJW+/71QfbtiFFzX/Wtw8J6Ax62Iyr/YLfilG3dLojP9T8CTexy+QwTifnzs5+U7fHvPoeZoGhjaFGnJsftgfeBj8nn4cPTwN8fsKn9gr8X8JEmMkopEWq7aML4q6L30oWs3a0USkOs/glbXk6iADO7cMHslVfK5J+YtwszOCgsv0SNgBILnRsE8SZysvJ+JjJA4GM2aMi4vUtKUJraJU3alGbERLgpw9i5khEM3/IYSScRoWsk/ES5UiUioILL1UplFO8aeZJgt6u/wsx/0e0VFckubWcWVnniyLzTcsrBfHAojx2TPA2DA/yW9jONmYC4R0TxIq5cSm+2ulrA8Vww8iWnPV2YfQsxeGhVURvW4CRpBSvzpzBJeWvms/exHVCWKIzvstGRgKYGskC9ecWJwhV4xk6WtkQW4HJqT1Bq28n2bcazYyLcjFHsUocyy5YJjZKtKy1k7xHEXhSfjcasLUu1Pn6X05TKOUBuZLLxKWswEiD2ajBYFo+7Caf9rzPYgxLeYO/qu68l8+zztAdkksodLOn+gPdHFaFjCWdrxdwC4WXR+iYdobEHbNkR0+OIdBizi0BJ4neOzkOiLW3EnS0tzFennNr54nPBTkS58y18/S2IifD1j9013Zmu3YS2FUkPe0lDxmaoS4b1JuaKBIqjhbnTcCDB7mMZRaGURsMnohKfakKMRbLqOmJi86FPl64NzaCSxLjCG9TE1NZGe686f1WI1TuG2oqU3Em0ohkIUJEhhtjZqGFPg7YquLytJEgII68bTEDK+ZDGVzWLkVtOAdqvFOQauIMlSHQ+Iao5MSfcwZey1x69XDpnOextGexaDZQUCWx0abR5SvoiljR1iLyJaHplgC8jTioZi4gyhyiqVGiZnNSznvO4MtTW0Pw1ED99M0RuAHi/lqimT8VESlflHxus34zSqYxISt7EhkK8FnG1xFACsY+Qg36thmLM6XHQnkK8NTSecviGQpnofCrhyi4oQU4YVJLsgqb13YSYE/Y9hN0rmD6MdhBtYAUiqCFeIhTiREAwEKnQlC24MLToOE6SfZ/SXrjvHhVhwIDgCkclI7qHCCE8JXUcRONFQ0A8+NaqOM4nE43/3VnZoCW586EozuBSl0WNL26p+uQJpL8G9ktHbE7NJ4O59odwTiIm1I6lNV8R5Krb0RIkRDXkRiHGmAi3eFqtLA05BUqTvV4CYpTJOEm0+gBgUPLPrGRudS3wiIiz0EM9AN3uPGBFd4ifnliqybceiVJpEH4lDuhE1uB1Uo03cFxgAwgdufAmfcKNFacn9ADtIbMkKnWnxAhJU1arkbQNyEBwBHksC8KA1Pw7V4IiaLgV3c6Fr93Nv68Zd1SdCMrh/vfWIu36GFyZ/O/XakeMqjtcZ9RA9lqn1+2Irbul96f49pygHTHypeK+42xI8vDnu2+VFGHIBFQjhKZOxEZKzqwy/ObGbGVh2g5O4pheOg3TmnKEpZKU0yY1VPRQHUMBIhgOlaixc8cD4MUel+Og1wV3X5MMUlzl2uiINdAh1enldneXupLw7Vb0pc7CUJMx3z+n6/meUgQCeKsqBWydo+SnL62M4SxN1N5E2opzRK2kCCWqerZarz2MkxNrZRdsic/6FOVTOvavJUq3mnDVh7BnNpRA33U8GGoW9f7kxO6XqDZsAFlvzY3gAPvxgm4OtNuqBc4rveyImjPdisYn1MNul8fnokaggvZzbHQKPBu8XFLjiJgF239gmDz1r+ET2R1aI6q+3XZMsYTV+hImjkWbOjCCIX/BxqbG7Qomj4K8e+LS9wjERNjnEOaIGyyD6jY+dMSKa/JawdejdBlNJ6JcszvcYp+P3pbb80MNYiFJQ3Bs2i7NXca9DQ4Kd26wd0wKCj0ufY9ATIR9DqGcjgqKTmffNzq4z+2z1opzNgW3qJf3/iStlMp28OBhm58jhTiK2ukDx+zixSU+j9gyXD8u/Y9ATIR9jmGJnO6HDg/a7PzzBAaj7OC/8ZFBCPOKg5PY6yVJUPSVZfS05IIYHtxvZeAtDkxP2/OnngX7Z++L27vh/cRE2OdbyGLkVsrtwzcV7eXXfkq4zSgTlTTQpTUiAXxn5D4fsoO3J8CfWVst2f6pgxj5K0SXzNnyLNH4wG68/e69z+l3cGjbj46JsM+3IF/PEYCHP/XwAzaxr+b2h8tXiFBXCHsPaIw+H70tt18pLNtx8kVcunwGbfCqTY0Rf1E9bf/hjz8AyvnOmi+2ZQC24SExEfY5yFgnUDIv2Ic/fpN9/Nc/aOfPX0Rsw++SPeL84rk+a9/528cm8/bqmRdAYFNQ9QKZjGfs3/+7D9ldt9O26ms738AboAXpZitZgm8DCdpS1D+HLNClBK+PsvX1a0fs8mh3SgG4KlE2IB0XPkvwfLh/G6PgVKFn12nbEfntTD0t25c7GzD9ADFDRMM0UXqv2Oce3m/vvPsh+5f/+nF79cI+sgkNE5T6Mn6YSmgq+xlwFvh9ZtGoKh13uUDUOAOkKAvnL4qx3AvRQ90DEeu+at2Lb5Qt0PXDWfLWX0pG9stWg2SQl9eM862RBw3/pUFEc4Z6ntcEz9PBHgoOgmcleLk14OWVaEUwiGVgymqMVxbYggSuc6orNTNtw4WbyUk4bw//1i/ZZ36bJDDJSyw8ebIj3eWAgL2mqX2tsfPHkM+2aa1tg9MQrw+goB5dv0Kf7iBFNsdupZMduN2WdZOee274/QfbEjWHtsOOuPc1B93e0DacS4/O2+oikBXNmw3ke3v7A0X7s6/eYT/40Yr96Rces1eeOQ7QEtHpo4MAMkF4FRJeFss4bIMYMz5ua7iuqTg6x7Bcd8ZloiVAmhakaH5gvD1pZRj2CE0OBN7sKgOAtT6B5UDQgkBsGeWrBWArcEsDy4yZDq6NoCQyMsaDdyPPm+pRq6wQ5QHSmcCh8mDr1PCYWbpMfoilst1261n79O/fab/y4DRIAdxHQ5fmDtgoLqVZ0Nt6wYdc7yuIIpTrrWOvXR8TYZ9vbG2FdF0AMzlkYkoNbek4UIXvf0/d3vuu99qzj07bt769Yt/6ziM2t7Bs+6YO2QjoZWXgwi6g9h+fPtx2xsaBVMDWnrdKy5dzqYBIC8fSiq/oec+3VGFKntLHYXEGSpMYQBG0+xM3BNLRJ17BSdYbQnzjfj7FCcsra6SUGwcR7iA4q/Ogl79gU9Nl+/Cvvs3e/4Hb7U23gPmKI3mteoX7BMdYtfEp+tscsiJ4PPnhdY+UDQ25zh9B4nujEWJMhNc5WcKXDxIfKB+0hXmyBQEsNDRMECwS8BBpskegk3c++KI98OCwfe4PHrKXX2zYT/5qyR7/v4t2+jV8R2tTBN+ed8SShADlzyk4RDlzKlBXMIyDw4Dt+uKnA3KC6Jw054mkBYhInNARJ8/Tp4OyF5eDG5ZLitjwiFafku7qwMsLoa4OyG42vYT4uWi3gWD+rvcctPvv/4BN76MuniBPPDl0A9JI3wB1cuyaP5rQAA4xP6wDG0L/1bDrKr44qD6ECVEVhcXH66p8j1wcE2GfL0p8oAL3GyN5piauQpJyxOPp+xqheEMHPAdtcKps9G1md751xD7xDw7b4sqyLS2v2mPfu9NmZubs5ZfO2tnTlwG4Ij9FagTzxiQI3kNAvp93E9FF52uf6ByvQZVrxfsl2ds15d/K3t4F/SJ6Vsls6iIqIO5B9qtlgRlXZyC2NQB/cxDcAbv9jiPYNyft8PFTNjFyGNCjcS+4Crry4CNXEZ+VYu4A/quOGbMHBAmbPfAwsIwrIFqPjNAu5UvbhOITYJAoN6HaPVFFTIR9vqYiabtmZsp4lKzayZNTgO8O2GrlImBPcMVDwFmUESNb2X+x5aPAEQRf0iaH9llhcszu+p3LTiliJmJ9G0hiQAdfXLYL5+bJOLyAiHiLg6kQ4lzBwVesuhAoEbu4paAulF1YcBjDI3kIY8yhgOt3Btl233SWPWkWA7uR88HToaCO4VmCrrhIe+5wCwY8k88i+1CiPQBGSoLPKRBmtpgQIMHIaICTgpHPTtpPn67ZN772Yzt29Lg9/JkWENPrHMcw9/M53xuJGGMifJ2Tx78tm71kP32yYp///UftIx/7kP3uH+6z/RPA70Fq1RKo2JLW4C5SCJbIdFQDQyIDMObAAG5uQCA2m9NeGBFinhSbY1w3dXTc7jyiVNSIjhsSca5rRaObLeKSiOgpd/Td0/4q4h7trIuk0r4SjkoimwESqIgCFcbUbLBgSHPbUr4qRXUZhO40CVVq7DvX6NFzL6TsK382Yz/+3kVSlJ22L3zxva1nRbfmWo92IsRrvX+vXxcTYZ9vsG5HUGSgWSSv+w8fnbe/+Nope+iDU/bwP7rFbjm5Ahl40IsC/Ms7eD+4iawm4LooFkpHUjJTgAPqqFDQF3A+h3ChQN8me0y3BwyV4DFfN+PYFie0bVRd1JtoAac6NQ4aWQcwE7wXE4eLFnL36SqZL2TKGGcfSLQE+Dg/+uYV+9pXy3bqWQB1E2O271DeZpdfs3OC7AQ3eTPKG5kQ0y4XHqVtL9O7CMZ4EeTpznew4/RrR5T9zC9Rz1D6sG4lLL7oWl+U2XBfq/2qLdg/6RlUop6t46hKXJKgpgBlZWfSQU9+Q0Rr2JBLYIOKPzVljaGS7QOu8Jmfr9lnP/tN6nyzfeYTs4D/gsZ955jLr1KHE6ZBHTeQpR2ycBNdv0wP4kZ8JsD7TDgVqdcuNzzrQ+Qd7PKvWkj8vSMotTeF3S8hhG/XaJ7Pc/QnItfhhEsxp3MklmFRIBmUvXbO7Ps/OmNPPvmcPfnylOXIv6gkqLlJAKGS58gZOATc/K02kZ3lWWCAukHV/y1s0ZaSxUFw9MhvqWDkyKJFwbV3o51Xxza8vz1uR1RfdiUnDK6KkS9oDx384n85bH/yH58nz0XJ7rv/APa2N9lddw+TR3HYRdanHMujQDd1LYhY/5nqkIw3CaXR9Ip++0tG4LPRwoBpzWXvo1UnP+qAR8nZoCGCF7iU8j2ktXyA6gZLLgKfcf48mKhPn7Mnnjhrzz2/SEIaENtYVHID7FPJDx+XrR2BHSfCTmJIm5t1WCi3dlg2r/baxDIMr2mroJ391c9L9q1Hn7S1JeyFk5N24sQJe+c7Z21sPI+mcsqOHBtDtM24LFQtMrJBjxbbDXIMgjFpMQpESR+SUHdosIjWb92jzxIIbxUIeWkhZXOzGZs517RXXlyx507N2fmzC/bC+Z+7VOFDo2OAS406zpaZENeXqkbG+Lhs9QjsOBGqgz7BiTXfSFxQfas0ijaAxjSfHXAiZ57cDymM+QlMDjMLi/blP/c8WppA/ydJ1pnKkPqNJKMu+SwYoXcpUxVyo4CARSw+8G8O4CaZKSSNyZ5YWCuTELSI83gBVO0CGlQv3dsM3i3SpJZI6pnEFW2A3H6CVxSiWgXN7oHbpq1SRPNaWuWaCkb7QRwGEE1hmDXSr/VpBtzq+bvn69d833EijOKEQaLc66OcIz1aopCwAmm46+SsyALwNKlkmxi7C8VlS47uZ9+D/U35EeVehuyYQYOZA/tF//3wiTEWJuWxF4DwIn+kOON6jZFgCpVW2vOkQeuZYAfLXyqFiSHh5WsYGgdNOwusYgHNLMogcpCScpCUZ8qApNzxRSAZ+RwcAXdUih3JrvVV6pdPK4hwe/0F7IH27zgRaow6cULv+N6WR0eHZ3HExjoI3mi9BgYNSUCXSRCbTuEYPTBsy2USisLRRsgslSLnopK61MmtXi3UwHAhtTUZn+T5IrNCCjVmFmgJ3zNGkkOlPssIOhuDRpL7BZQISndLoF0kealAfQfhoklSiifgrnJtU8ZdKU5ShdvcfrFaJbNUA+8b7s3gIzo0xEKAGaWw6gvGe2A278Em7gpOGDVuN5JIWi2O2yJG9np9DUP+KCFB43AdUlAjIq6WSM89SvYnvF2qJEQtEYuofZ0gMnwRtCKO58wNfMKlFOUgh2y3QGGCSJJkVMTo+ZR6Pqb+dx3PDgxSN7u7tQIEyx5PTtwwQYm3whetNJ/h3hRJUYdwMEBUTux3XjFXcN6WU0BuWkk547KVI7DjnDBKHFWHbxRCXCnVndJDSV3KZGNaXLuE54kkQTg8tsHKyogjoCy52EUcIiwRWR3HzRrUkCTsyMs14YXhuFwTskC0VPvs7Lz5IaIUXqk0+qoDXiiSroK2rUgmOXoDcs9eFDslGlmFVbFdxVwy6M7X4IaV8jzWEswOMD9Sv9vwPkwW5R2fIls5/3dF3Wm3B6Boh9G2vwQlwBb+ZEvhxgQJtbtPO+JV8WCB6h0hykjXKkH7UHsS9rBD+df5Iq/r61Wd4GBrUjteFLBdVdh/MVMdNL20IOswkhLTNFt1g5Jv1ghLWraJYaIU2N8pHk9Kk0Hg5pWPDw8zuIy4HESA0kPP0PRusl9T8YVJUY7OJV2eQrXVN0foHXk0FsAGdrY9FS9/hSc6BtsvJ23vvOyHXOc6IEolpEmXQ4zeXf6nu7xdCrjZHNw3YcsLS86skSEhfEr+qjy3SSRGlfZpaHw4UyRo/A3Y3yo9tWJVlSe+Vfx2BdvXiHoXgee3rw1cF3x//ugE69xQ/47bEQPi/PpQtHvYQMKJBf7AC4/6KrFQL1Uv3vvjqtZgujkMQSlFdZ3P0VH2fDh/SslSQbMo/81giST+iIde63XbUffY2JjNXLzgUrNJAaTICnHREjGR6neKY/6apYVcJSgaR3QvehGMuvANciwmwh4vWkoTFceVmW0BJumOi5uQvgVOQMIXote1v5LGMpvNkvlIE9Uj3vBj1ol6fXkMEl+n+8L1BH/790cRcbjubvUEz8l5R2KuGEoT4pPpQmmsh0ln7TJwR5TgnrTTc19P/yIedUMciomwx2v08wCKAF34UFBU9+9FPBsChEWRDiI+TbDBwUGksdZ+jeuCBBImkuCEDJ/r0byriDz8nE51XysRrBVWbP/+fU6x41zr5AiOmCl7pTsQKHJbE2q/Lw76Lmed2tCrb2+U8zER9njTCiNSCe4z3D6Q4nZXMmqz5ytGkm1dAAAU4ElEQVQW1wgdUtR63YUeFYtFYgJHNhBJkMD8iRk+5urtwD29p0b/G1VP8Er//PXWXcOAL1pTFH4aO6LMJBk2gRdnXiWpDfZKXzYPPEzP8PNRRLXretsQ3eMb52hMhD3epb+a6zLt81q4WO6uuuxsaDrTYLbMzp1DOaOIhAR7w1GXutrHgdG1QSIIPzI4KaMmbfj64O9u94Yne7ju4O9Oz8jQwUszM46zSyubQhEmr57llfM2McWig0wa1K3UEFu1J9a4+Uq3bm3s9Nw30vGYCHu8bV8M1cquZC9riGW+H7XjjmQqOn7ztN1+53FbWZ3F0K19YwKApkEHmhsmGP0OE0e4CddCHJ3uibo3THzhe7v9lpOAojwy+hTB4VFarSzZg3/zPjtylHjEQKmitSkUqs4GqiLRPKpEtTHqujfKsZgIe7xpX8mglV0ipv4a0sNTFIZTBgDp6NGUffRj7wZ1W+5edbSJ520SB21pE7tNuDAx9kMswW5EPfP11i2uplwUUjLVG3KXq9nq2qJ98tPHbZyUaRofrUWqX5KCxkefKor47/TcqDb2eBU37OnUoYOf+Ofh3vmTww2U5pv7jP5zkTgtZDCxCM9IvP7puAa2KXcJdTizGt/9v0A4YbgZ7veGvVjgCr+Nsnv5fzIZ+vUyNYBo4NFRipRAPVH1B/ufTODtgi20USfLbWrWZSP65b9xBAAZnKxl1cYZGsW93XtPBpS1pv34+y/CDU9g/ztG3N0K56qIq/hz4qspd7Q68lrC2ebwiiFXfD1N/RCuHKqFwdmk/iaTt8H+C1BCRFwmvrxldE6jJ/uciJuBbwreMMmEF7irCIHBlt1N/ynRqLh3pbbEmOAErqbiFuf2dXp+FdlSYY04CaSaWW6Ha2H3k/9qkzqTwBkmckVsn03ME6Nwv0FyFF62++7M2+f/4FfsHfcLFaBo2Qow+cUFri1ZMTNm/+k/X7KL8znSbucAqVrFpCEThicdRI21ez1ubqgL+s9b3Lzv6rNOdi6u7vDpwFx146HfFP+9Xn25d03wvfvfXfJVbmj/teaYTw/B1vnPCdbvYf3IAcOzBPud1cKl75oJiXvv+UbXXkYNXPAhCV5i14LmUMWvJ1yfb2zuVEf4+k7XBZ8R/O7iVbuUXvWPDteBgK/ZxMQxuB4I1NWn7f98/bdtbLCK69cKMIYpwpJQ1/MMveufPd2wf/Fvv2TPnhInOMF9JccRZDQXNxF3lM1N+0WnvBmYcMRSg8sIUlCW25TgLwCkkThXXfOmmNNKcp3ua7Dw+JNE0RbB/nrgwOvHkjyrRg6Jeq3ktLUiyBRIThmlxUaVWay9CcIr0X7ls6+6Y46D46kjk8uBkYP2i1/8DJe7K/abn7zdPvlbt9hwFuhDFpFqIUk7CdXi+tm1rC0sZuxjH/0K68TNNkEuw0Qah/Oakph2LsHxj/ru+f1c2/1RV/mTO6ru4LhF3atj3ZxJdD68yIfneZAwo9sQE2FHTuu/lIFskUnMRK5PEOYzZhfPP2Of/tRt9od/9Ga422tcdsSW5sk9geIig22+QARCHfyWH3x31f7rn/7QXnw6i5eJF6WQH8bzBjeyGpO+QoJNAf2mFm92fpyZHC8Dr5tKQz6eiphAKwkHTLeCfj2xT/zdwx71cUcbIKsFS3g1Xqp4yGxZQRcKrU3iIzNT0Rgi6tIgvqEsANrvZXCJy5CFqVkZtcrqAJEXaTu2b9U++vcn7SO/Ttpvm+OySautejGPieS8FRoXWc9vQYOas4f/4VMAUU2BGAfnzcuRHHiPRvS+MNjm6MnpXfF6JSW//pgINRJ7nBMmIIqRsVG7MLNo05O3YaxO2eL8E/ZHn3+H/epHjzEpz+DfSUAsopgkpwZO0klE1KWVOrF7A/bEj8y+/Z1Ze+T7P7bF5bLllMMwM2zp7BBcZIRQovOOGESQHvo2UoOwZZRkVKKpfNRaGCItqcpxQ/8Yfn0tcc+TNhyxIof7K3g9q/An/EQdnbGHQ0yEz6LlVGRH1q5Uz9oQwL+J2ogtXl6AO5+1E7dU7YMfOmrvfvC43XvrNIQPPD6ip4z2adzudK/62pS4i3uaRM/PffZJslI54dvyOKg3gNRXgDFesBsWiW4/wlzETZ+rZM2NNfSSZGIivAGIMINevgHqWJFQn5GhQ7Y8p6kFB6m8ACF+0j7y0QEHU1EoXIYbQoj1PBwEUXWY2ZMoACzIXgon6CuLZi/9omk/evSMPfbYGTt7Fk7XHLSJQ4qi0ECJY+UhTmyLiIJFELpLxZoNjBKqBBFqsklTqT99F5qLO4b4KO7XwH9Of1KeSImk7zqeqgK/r6BgRFs5iTvCQXFSbilQRtOHbGL/it16R9EeeOeg3fv2A3bi2GH2jTRf9JN5Eno7wrbzgDf7McM0EV3JWEEbsnZh3uyf/N4jBBIftPOXWaiODhAgvAjUI7CL2SNsM7tHYaiNnTihjsdEyLD3Wmlu9D1hiuBaiVXZARy0yVpbr+bYDx60ubkFm56etAffO26/89kTZOaVIuSSZZOEH9RQTKClJ0Ad0ZRZyv6piWtbTUhrFO0f54FuuXC+AEJbDTTu83bquVft3LkFotmzwExMEP83ASfEFa6dXs0jOo8g1ze6UvY4tG1o3ouuEBfkvcENdaw2j1KlBohv4wqI2VU7fDRvt508aLeePGIHDw3ZrW85b6NDUzie43oX1A44hRoicwOuqSxv1LVw5YolFeGP6K3g4FPPnrF/869mbOkKNtR62vYfGeP8Mv15yU6euM/OvrIKCp2PkeO6flWJ2jNtmHORLkrr1fSanzEn1FjtcXFUEQHDQ+NOZFxZXbCpQyMQ0JIdOXzSnn7mNLnq00zskn3+n/4tu/9eJmOxAAENglzNvGX+QbcoYhgHJnGVvZ6lSuzzFDmBk7eUIXaM7xLb0LGiCCkQAX95dsXOnb0MJsyizZ4/4DibgH6l2CnjGlcue5H4IkARpYdjmgX0dwAFiqD4czxT4L8pe9NNDcB/B8CuGbTJfTzJIWazb4W7l2urNp6+w81o+YEK2EwEnAIICrxt/mh8ZT9t8voimFLy1NhzL6/al/78eXvkL2fow7AdPf5m9rQD9vKZlxx046H9kzY3M2/7Jw+h+NloK3UPC5QoItTpNnHFRBhzQuF2DqSPwqHQaAL7V09fdKr7S7NFO3DgdmAr1mwQVlFYOmN/7++esN/9x3fZ5BTiGiFA2TSITa4ws9mXOW27OIzmuD4VPyi8UVda3E17IF3Hp3MXC4XztbXvrdv021N3tzihq8axMVcRqh5VRVFGCWG4qS2sDrqPvwqwvgrT8o0BBGEhxgrqwmtPTtUkl6mnaM++VLb/9T8X7dt/uWyF8rAdOnrIKsmLQOIXIOgE/rP7bTg/STaneRskRKvZhAMnu2fz1eLWTRyNdtZ1HXLlhuCE99z99bYQ0mkw1rt89bdeg+APYqe65ZkfHMxwfbvdhCE7m6ArFI2+urqC4qVov/SOKfvwrz1g7/hloOdbBKU0gvLnxlrhFdmNMB3UZK7gSLXlo+o5iYskoBUmaEOKFr77f+tvwKNCHMe4VhZCIbTKkujFp3nWLb5XgbJniB2h8qdwQmlePbzZBunNxKkQl2uyTcKycVLXVrDGSqEg5BXAh7//nYL9xVefsud+vkRfx3FEIPeicGtqK9hKuxNZnYd3evfhd73et/VvUfcGj221CcNvif/McJvDv8N9CM7fqL64PXFMhOFh2/i71yCvFZZwURvFmXmUOZ5iYsI1miCnZZbRgpbsN35t2N5+7z1239tu56y4G7AWiLUj5ItIK0xKCNvhIuM7bFCO4GkSivpFhOknepFnjgoql413c5GvRXWEF9ySKQ5Ja55YYItbVkt5p2hVtL/PP19+yeyJn8zZqVMX7QdP/hSN6Bi0iVbXJiBxsHJYTapoSwVclSd5TbeyFUSo5/nvZS8RYbDdfvtjImRU+jXmD+RbaczAFtX+NyX4CNXr9nEY59fAbKkv2NgkHPKBCXvfQ0ftvgfIV3FAyvyi5SpTjkO5OD3+RB5JNCQu7yDE0YQbOWLSZs0TGrjeJxeOu6A+sTpRm25wVOZ9olqskVVXv30kNmGK45LDMUTREvwTGj99ds0ef2zW/t9PFu1VRM7lZdUnm2bGStUSfeJ6p1mVthIndYEW41CQIZdGDQ1ut9IvEaruKA7iP3Ortaf+c14vJ/SN+Z3ud/2LOWG3KbRxAkRdmRaMhWx8DobQg69IJ0fgckPOnnaldJpUZwoByjHpa8BEYIznc5JEofunDtj7/86jaFmn7PiJY/igHkR5MoL9UESjpzHZW5Qn7oZ0yh+WN+fD6XnNZHJkU0ItKg8W8UWP9XnUquuryVXAnJK2vIjtcpaIiPPA3P+iZC+9sGAXL1yxp19ZtkwejJscxJyCw0kjSt3pbB5RdcBGM2/GXLIMKBVJQgGlSaHscTGTLu8FfwKP6lI2gwj96qMm8l4hQvWh02ISE6HPXTpMpODARV7CBIfGMK6DGQoejzhgpYwzc1n2P4hjgHzwcDa5qg0CISjCKqFBdVwSFpcqT2G3EzjvmssjmEzVbHRsCJPHuI1PjNpNN19sIa9hBG+D/+YwY2A0ZwGolDF94I+qzL+rqwL/LfG3xneUJRx75pljLt6xicVSoMIDg3UIDFEX9LcqXDabvgniwq0NL54UTgKZHHZFcEub+Moqq29l7QzQhzgPwJllAqnyrAa4qJbwFpkkmtZupV8i3Gk7YrcFIExYUeOgHXvwuvB80u+YCPskwjzZPzWZqzX5XtZQvADghHHc8/HUjmWYc2Xnv+lZv6VAqbVMAYiypUMuj2A2J2M9ChZsGzX2jbpeXM+q3p7Rgzlchzr0VPsQH4C+8o4RTKJwS8VxPYO+pxDJjYOihpmlirjclLjM5s+BTfFdnHIwL9cy0qLhZCAXM7nBNUiL1kjiooaNciiNEob6pWDQHpWquBdXPOARcyQxrZaWouZe+9hmEGFXQthiE0bXZ3MyTFThwfCJsBMh6v6QAjxcRfy71whIMSPuJ3ExhToecoBTSDxVADBWNBQ26SScJZPHvauljlckBDfUKoDswinreLcIil6E5rZ+EEkGYhFiW62luHEvW6nOnJiql++tsIN4pPi2No9rYGRou7IliO074yaKbIkiPr1yLRCyMQrHtLBGNAecUZy8gVmlXuJ8bQyng5O44pHOu/K4u154jBKxBwdoF8+uYroplueobfunUJg79npHu+W8327/ffkEvP0juFtGZJPaIREvlyBSoJkjYgBYeQhL/pxpvLlJPwFx4UWjLwIVhbERAOWIQS6hNQCTErU5R0SOUOCgGZQgCYhNhC3Ok8yutFrKDU4ho+KFLPFQS+JYrhg/L8ICkRgCcf6jiobgM1c87v2WroVn+Bw1pT2lnM8w7ldIXlpGwSJjSBYH81Qezlk7hVcMnkK5t3Cf9oC0Hy1DBRG3gW2xkWQvSDKaNAlktrIECa7T9618fr91d1sw/HOJe976v70ltfU0nzr9zyAupH9Mlwa/d2toz+ta4kSnuve6HdEfm079YyC7DZ8joG4lrJgIvz9/1Q2/s57vpfXQYKhOuG5dEl7Vr/c5/YqrwbGJGuPw+ITHstc4+MQRVXfUs8P1hX+Hn6/x7f6Gw3fEv+MRiEdg00cgJsJNH9K4wngErm8EYiK8vvGKr45HYNNHICbCTR/SuMJ4BK5vBGIivL7xiq+OR2DTRyAmwk0f0rjCeASubwRiIry+8Yqvjkdg00fgKmO9b/cJ2pf8p0YZHjcYGV9H83z7s0zH7ecE61EgniuePU2eKUHbS7PmrSNRNizd1cJICta44fuGulR5q7TtX/7j1YKATc//Xt+ACXH1Y/zrguMZZbvr1H4Z4buVq+yIrT744xm0k0W+v0Cfo/q3oXvtawPj1DJzRtWtdvvtj6pb54XgE3j1V3X1euyIncbYrzSqDcF5d9XDOdC+J2Ju6Pp+7YgK8Iw5YdTI7+CxqMVvB5sTP3obRiAmwm0Y5Gt5RK9V/FrqiK/ZmyMQE+EOvzcRn0+AYUKMueIOv5xtenxMhNs00L0eEyTEmPh6jdaNdT4mwh1+n2Hu5zcnyCF3uInx47d4BGIi3OIBvpbqOxHitdwbX7P3RyAmwl3yDmNC3CUvYgeakVbwqEonO1XQtqLrgnuXqPaG6+l3f9OvHdGEh9KlNHukdgv2P4pQ2nG2gTHU4/z7rtWOGG5i+1ktO2F4XP3r+7Uj9gLXDdYfZWfb63bEqD4FjwXjacPvKPieIYz26Q3zpHU06jn+DTEnjBrZXXys30WtW9e2su5uz91t57Z7HGIi3G0zoEN7orhwh0uv67DqjZp0nY5fV+V74OJO47qd/Y+JcJdPlOBkCE+YKOJ5vd3x69rOyfd627rZ93Ua481+Tqf6YiLsNDK77PhWEUmnCfhGIcbwwqbXvt19j4lwlxFbuDlRk2QrJkqQyMNtuNF/d1uItqPvMRFuxyj3+YxOhNhntVfdHiTE4DOvuvAGP7DdfY+JcI9MqK0ixG4Trtu5PTJsPZvZaVy3s+/ppLK9UtZD5TbmEFcqLu+8FzgWtHfoeAOQ2WAJrqYbTrR+hO1dvexQvQbjWu2Inew0zZrf/+j+7ZZ4xPBYtsc5ZOcNvit972UH9pOBtutfN3e5QxviPNGkht9/8P1EjXEvO2IvO2W4/eH+9RuPeFU8ZnsgvL1hlB14M+2IAmiOOWFg0OOvOzcCvRbbnWvZ1U/e7LbGRHj1GMdHdmgEeklRO9GsIMGFv28WMcZEuBNvNn5mewQ0kcOTWyfDx3dyyIJt2SzC8/uj+mIi3Mm3Gz97AzEGJ+ZuGZrtWCBiItwtb/sN2o5OXGYvcMLN4IoxJ3yDTvzd2G1/Qm/GxN7q/m12G2NOuNVvLK7/ukdgsyf5dTcgcEOwLZ2+91O/7k336nD4vH5vsJOAm9irhG1Lur5dTygOK3xtsPYoO1Swff754HX+/R0HMJTA7nr7183OFB6XcN06T5r7donqX717+sLwI6763fv9dbcDK5vvhnfi44xiQdTxXnbEYIOi+tepe367w/Mh3MFeuKaeHXy9DxvTQZKePGTnDtff6fn+8aj5pzq6nd9QJ/P//wPvs95Kd2YOMAAAAABJRU5ErkJggg==;" vertex="1" parent="5ZRrx6sR0JSF5xaEXeh_-19">
          <mxGeometry x="73.08999999999969" width="130" height="130" as="geometry" />
        </mxCell>
        <mxCell id="5ZRrx6sR0JSF5xaEXeh_-18" value="Elasticache Cluster&lt;br&gt;(Redis)" style="text;html=1;strokeColor=none;fillColor=none;align=center;verticalAlign=middle;whiteSpace=wrap;rounded=0;fontSize=30;" vertex="1" parent="5ZRrx6sR0JSF5xaEXeh_-19">
          <mxGeometry y="140" width="276.18" height="50" as="geometry" />
        </mxCell>
        <mxCell id="5ZRrx6sR0JSF5xaEXeh_-20" value="" style="group" vertex="1" connectable="0" parent="1">
          <mxGeometry x="1524" y="760" width="180" height="170" as="geometry" />
        </mxCell>
        <mxCell id="5ZRrx6sR0JSF5xaEXeh_-1" value="" style="shape=image;verticalLabelPosition=bottom;labelBackgroundColor=default;verticalAlign=top;aspect=fixed;imageAspect=0;image=https://static-00.iconduck.com/assets.00/aws-api-gateway-icon-423x512-70e4i3mi.png;" vertex="1" parent="5ZRrx6sR0JSF5xaEXeh_-20">
          <mxGeometry x="36.299999999999955" width="107.4" height="130" as="geometry" />
        </mxCell>
        <mxCell id="5ZRrx6sR0JSF5xaEXeh_-2" value="API Gateway" style="text;html=1;strokeColor=none;fillColor=none;align=center;verticalAlign=middle;whiteSpace=wrap;rounded=0;fontSize=30;" vertex="1" parent="5ZRrx6sR0JSF5xaEXeh_-20">
          <mxGeometry y="120" width="180" height="50" as="geometry" />
        </mxCell>
        <mxCell id="5ZRrx6sR0JSF5xaEXeh_-21" value="" style="group" vertex="1" connectable="0" parent="1">
          <mxGeometry x="230" y="1620" width="242.36" height="190" as="geometry" />
        </mxCell>
        <mxCell id="5ZRrx6sR0JSF5xaEXeh_-10" value="RDS Instance&lt;br&gt;(MySQL)" style="text;html=1;strokeColor=none;fillColor=none;align=center;verticalAlign=middle;whiteSpace=wrap;rounded=0;fontSize=30;" vertex="1" parent="5ZRrx6sR0JSF5xaEXeh_-21">
          <mxGeometry y="140" width="242.36" height="50" as="geometry" />
        </mxCell>
        <mxCell id="5ZRrx6sR0JSF5xaEXeh_-12" value="" style="shape=image;verticalLabelPosition=bottom;labelBackgroundColor=default;verticalAlign=top;aspect=fixed;imageAspect=0;image=https://cloud-icons.onemodel.app/aws/Architecture-Service-Icons_01312023/Arch_Database/64/Arch_Amazon-RDS_64@5x.png;" vertex="1" parent="5ZRrx6sR0JSF5xaEXeh_-21">
          <mxGeometry x="56.180000000000064" width="130" height="130" as="geometry" />
        </mxCell>
      </root>
    </mxGraphModel>
  </diagram>
</mxfile>
